<svg width="40" height="40" viewBox="0 0 40 40" fill="none" xmlns="http://www.w3.org/2000/svg">
<g clip-path="url(#clip0_2581_1075)">
<g clip-path="url(#clip1_2581_1075)">
<mask id="mask0_2581_1075" style="mask-type:luminance" maskUnits="userSpaceOnUse" x="0" y="0" width="40" height="40">
<path d="M39.4245 0H0V39.5683H39.4245V0Z" fill="white"/>
</mask>
<g mask="url(#mask0_2581_1075)">
<path d="M19.7555 0.100586C8.90657 0.100586 0.0864258 8.92073 0.0864258 19.7696C0.0864258 30.6186 8.90657 39.4387 19.7555 39.4387C30.6044 39.4387 39.4246 30.6186 39.4246 19.7696C39.4246 8.92073 30.6044 0.100586 19.7555 0.100586ZM19.7555 37.9855C9.71233 37.9855 1.52527 29.8128 1.52527 19.7553C1.52527 9.69771 9.69794 1.52504 19.7555 1.52504C29.813 1.52504 37.9857 9.69771 37.9857 19.7553C37.9857 29.8128 29.813 37.9855 19.7555 37.9855Z" fill="#60A5FA"/>
<path d="M31.9858 16.1583C31.4678 16.0576 30.3599 16.1871 29.8131 17.4533L28.3023 21.5252C28.0434 21.4101 27.77 21.3382 27.4966 21.3382C27.2232 21.3382 26.7772 21.4389 26.475 21.6403L22.475 24.2159C21.2664 24.9497 20.3599 25.9425 19.7844 27.1511C19.2088 25.9281 18.3023 24.9497 17.0937 24.2159L13.0937 21.6403C12.7916 21.4389 12.4318 21.3382 12.0577 21.3382C11.6836 21.3382 11.4966 21.3957 11.252 21.5252C10.2448 18.8202 9.74119 17.4629 9.74119 17.4533C9.19443 16.1871 8.08651 16.0576 7.56853 16.1583C6.51817 16.3598 5.84191 17.2662 5.97141 18.3166C5.97141 18.3166 5.97141 18.3454 7.68364 25.2087C8.14407 27.036 9.38148 28.8778 11.0074 30.1296L13.6692 32.0288V32.9209C13.6692 33.5828 14.216 34.1296 14.8779 34.1296H24.7052C25.3671 34.1296 25.9139 33.5828 25.9139 32.9209V32.0288L28.5613 30.1439H28.5757C30.2016 28.8634 31.439 27.0216 31.8995 25.1943C33.5973 18.3454 33.6117 18.3166 33.6117 18.3022C33.7412 17.2519 33.0793 16.331 32.029 16.1439L31.9858 16.1583ZM19.0793 30.2878C19.0793 30.3166 19.0793 30.5324 19.0793 32.7626H14.993V31.6691C14.993 31.4533 14.8923 31.2375 14.7052 31.1224L11.7987 29.036C10.4318 27.9713 9.3527 26.3742 8.9786 24.8634L7.29515 18.1008C7.26637 17.7698 7.45342 17.5396 7.79875 17.4677C7.89946 17.4533 8.24479 17.4389 8.46062 17.9425L10.216 22.6619C10.0146 23.3238 10.1872 24.0288 10.6621 24.5324C10.6621 24.5324 10.6908 24.5612 13.439 26.7339C13.5829 26.849 13.7556 26.8921 13.9426 26.8778C14.1297 26.8634 14.288 26.7626 14.3887 26.6188C14.6189 26.331 14.5757 25.8993 14.2736 25.6691L11.6117 23.5684C11.439 23.3526 11.4534 23.036 11.6405 22.8346C11.8131 22.6619 12.1153 22.6188 12.3311 22.7626C15.017 24.4796 16.3599 25.3429 16.3599 25.3526C17.5973 26.1008 18.4174 27.1511 18.8347 28.4749C19.1369 29.4533 19.0793 30.2447 19.0793 30.2878ZM30.5469 24.8778C30.1728 26.3885 29.0793 28.0001 27.7268 29.0504L24.8059 31.1367C24.6333 31.2662 24.5182 31.4677 24.5182 31.6835V32.777H20.4318C20.4318 30.3166 20.4318 30.3022 20.4318 30.2878C20.4318 30.259 20.2016 27.1367 23.1513 25.3526C23.1513 25.3526 24.4941 24.4893 27.18 22.7626C27.3959 22.6331 27.6836 22.6619 27.8563 22.8346C28.0577 23.036 28.0721 23.3526 27.8851 23.5684L25.2232 25.6691C25.0793 25.7842 24.993 25.9425 24.9642 26.1152C24.9354 26.2878 24.993 26.4749 25.1081 26.6188C25.2232 26.7626 25.3815 26.849 25.5541 26.8778C25.7268 26.8921 25.9139 26.849 26.0577 26.7339C28.8059 24.5612 28.8203 24.5468 28.8347 24.5324C29.3095 24.0288 29.4822 23.3238 29.2808 22.6619L31.0362 17.9569C31.252 17.4533 31.5973 17.4533 31.6836 17.4677H31.698C32.029 17.5396 32.2304 17.7698 32.2016 18.1008L30.5182 24.8634L30.5469 24.8778Z" fill="#60A5FA"/>
<path d="M12.9209 18.6331H15.7698V20.705C15.7698 21.3525 16.2878 21.8705 16.9353 21.8705H17.0936V17.9424C17.0936 17.2086 17.7123 16.6043 18.4605 16.6043H21.4245C22.1583 16.6043 22.777 17.2086 22.7914 17.9424C22.7914 18 22.7914 18.3597 22.7914 20.5755V21.8705H22.9353C23.5828 21.8705 24.1008 21.3525 24.1008 20.705V18.6331H26.9497C27.6116 18.6331 28.1439 18.1007 28.1439 17.4388V14.7194C28.1439 13.5827 27.4245 12.5899 26.3741 12.2014C26.8058 11.669 27.036 11.0072 27.036 10.3165C27.036 8.64744 25.6835 7.29492 24.0144 7.29492C22.3454 7.29492 20.9928 8.64744 20.9928 10.3165C20.9928 11.9856 20.9928 10.5755 21.0216 10.7194C20.3598 10.4748 19.6116 10.4748 18.9353 10.7194C18.9497 10.5899 18.9641 10.4604 18.9641 10.3165C18.9641 8.64744 17.6116 7.29492 15.9425 7.29492C14.2734 7.29492 12.9209 8.64744 12.9209 10.3165C12.9209 11.9856 13.1511 11.669 13.5828 12.2014C12.5324 12.5755 11.813 13.5827 11.813 14.7194V17.4388C11.813 18.1007 12.3454 18.6331 13.0072 18.6331H12.9209ZM26.7914 14.7194V17.3237H23.9713C23.7554 16.4604 23.108 15.741 22.2734 15.4388C22.7051 14.9064 22.9353 14.2446 22.9353 13.5539C22.9353 12.8633 22.9353 13.41 22.9353 13.3381H25.4389C26.1871 13.3381 26.8058 13.9568 26.8058 14.705L26.7914 14.7194ZM23.9425 8.58989C24.8921 8.58989 25.6691 9.36686 25.6691 10.3165C25.6691 11.2661 24.8921 12.0431 23.9425 12.0431C22.9928 12.0431 22.2159 11.2661 22.2159 10.3165C22.2159 9.36686 22.9928 8.58989 23.9425 8.58989ZM19.8993 11.8417C20.849 11.8417 21.6259 12.6187 21.6259 13.5683C21.6259 14.5179 20.849 15.2949 19.8993 15.2949C18.9497 15.2949 18.1727 14.5179 18.1727 13.5683C18.1727 12.6187 18.9497 11.8417 19.8993 11.8417ZM15.8562 8.58989C16.8058 8.58989 17.5828 9.36686 17.5828 10.3165C17.5828 11.2661 16.8058 12.0431 15.8562 12.0431C14.9065 12.0431 14.1295 11.2661 14.1295 10.3165C14.1295 9.36686 14.9065 8.58989 15.8562 8.58989ZM13.0216 14.7194C13.0216 13.9712 13.6403 13.3525 14.3885 13.3525H16.8921C16.8921 13.4244 16.8921 13.4964 16.8921 13.5683C16.8921 14.259 17.1223 14.9208 17.554 15.4532C16.7195 15.7554 16.072 16.4604 15.8562 17.3381H13.036V14.7338L13.0216 14.7194Z" fill="#60A5FA"/>
</g>
</g>
</g>
<defs>
<clipPath id="clip0_2581_1075">
<rect width="40" height="40" fill="white"/>
</clipPath>
<clipPath id="clip1_2581_1075">
<rect width="40" height="40" fill="white"/>
</clipPath>
</defs>
</svg>
