<svg width="40" height="40" viewBox="0 0 40 40" fill="none" xmlns="http://www.w3.org/2000/svg">
<g clip-path="url(#clip0_2581_1022)">
<g clip-path="url(#clip1_2581_1022)">
<mask id="mask0_2581_1022" style="mask-type:luminance" maskUnits="userSpaceOnUse" x="0" y="0" width="40" height="40">
<path d="M39.4245 0H0V39.5683H39.4245V0Z" fill="white"/>
</mask>
<g mask="url(#mask0_2581_1022)">
<path d="M19.7555 0.100586C8.90657 0.100586 0.0864258 8.92073 0.0864258 19.7696C0.0864258 30.6186 8.90657 39.4387 19.7555 39.4387C30.6044 39.4387 39.4246 30.6186 39.4246 19.7696C39.4246 8.92073 30.6044 0.100586 19.7555 0.100586ZM19.7555 37.9855C9.71233 37.9855 1.52528 29.8128 1.52528 19.7553C1.52528 9.69771 9.69794 1.52504 19.7555 1.52504C29.813 1.52504 37.9857 9.69771 37.9857 19.7553C37.9857 29.8128 29.813 37.9855 19.7555 37.9855Z" fill="#94A3B8"/>
<path d="M18.1295 27.3234C17.2374 28.2154 17.2374 29.6831 18.1295 30.5752C19.0216 31.4672 20.4892 31.4672 21.3813 30.5752C22.2734 29.6831 22.2734 28.2154 21.3813 27.3234C20.4892 26.4313 19.0216 26.4313 18.1295 27.3234Z" fill="#94A3B8"/>
<path d="M19.7556 20.2012C17.4246 20.2012 15.2232 21.1076 13.5685 22.7623C13.3815 22.9494 13.2664 23.2084 13.2664 23.4817C13.2664 23.7551 13.3671 24.0141 13.5685 24.2012C13.7556 24.3882 14.0146 24.5033 14.2879 24.5033C14.5613 24.5033 14.8203 24.4026 15.0074 24.2012C16.2736 22.935 17.957 22.2299 19.7556 22.2299C21.5541 22.2299 23.2376 22.935 24.5038 24.2012C24.6908 24.3882 24.9498 24.5033 25.2232 24.5033C25.4966 24.5033 25.7556 24.4026 25.9426 24.2012C26.1297 24.0141 26.2448 23.7551 26.2448 23.4817C26.2448 23.2084 26.1441 22.9494 25.9426 22.7623C24.2879 21.1076 22.1009 20.2012 19.7556 20.2012Z" fill="#94A3B8"/>
<path d="M19.7556 14.2446C15.8275 14.2446 12.1297 15.7698 9.3527 18.5468C9.16564 18.7338 9.05054 18.9928 9.05054 19.2662C9.05054 19.5396 9.15126 19.7986 9.3527 19.9856C9.53975 20.1727 9.79874 20.2878 10.0721 20.2878C10.3455 20.2878 10.6045 20.1871 10.7915 19.9856C13.18 17.5971 16.3599 16.2734 19.7556 16.2734C23.1513 16.2734 26.3167 17.5971 28.7196 19.9856C28.9067 20.1727 29.1656 20.2878 29.439 20.2878C29.7124 20.2878 29.9714 20.1871 30.1585 19.9856C30.3455 19.7986 30.4606 19.5396 30.4606 19.2662C30.4606 18.9928 30.3599 18.7338 30.1585 18.5468C27.3815 15.7698 23.6836 14.2446 19.7556 14.2446Z" fill="#94A3B8"/>
<path d="M34.3887 14.331C30.4894 10.4317 25.2952 8.27344 19.77 8.27344C14.2448 8.27344 9.05056 10.4317 5.15128 14.331C4.96423 14.518 4.84912 14.777 4.84912 15.0504C4.84912 15.3238 4.94984 15.5828 5.15128 15.7698C5.33833 15.9569 5.59732 16.072 5.8707 16.072C6.14408 16.072 6.40308 15.9713 6.59013 15.7698C10.1153 12.2447 14.7916 10.3022 19.77 10.3022C24.7484 10.3022 29.4247 12.2447 32.9498 15.7698C33.3527 16.1727 34.0002 16.1727 34.3887 15.7698C34.7916 15.367 34.7916 14.7195 34.3887 14.331Z" fill="#94A3B8"/>
</g>
</g>
</g>
<defs>
<clipPath id="clip0_2581_1022">
<rect width="40" height="40" fill="white"/>
</clipPath>
<clipPath id="clip1_2581_1022">
<rect width="40" height="40" fill="white"/>
</clipPath>
</defs>
</svg>
