<svg width="40" height="40" viewBox="0 0 40 40" fill="none" xmlns="http://www.w3.org/2000/svg">
<g clip-path="url(#clip0_2581_1041)">
<g clip-path="url(#clip1_2581_1041)">
<mask id="mask0_2581_1041" style="mask-type:luminance" maskUnits="userSpaceOnUse" x="0" y="0" width="40" height="40">
<path d="M39.4245 0H0V39.5683H39.4245V0Z" fill="white"/>
</mask>
<g mask="url(#mask0_2581_1041)">
<path d="M19.7555 0.100586C8.90657 0.100586 0.0864258 8.92073 0.0864258 19.7696C0.0864258 30.6186 8.90657 39.4387 19.7555 39.4387C30.6044 39.4387 39.4246 30.6186 39.4246 19.7696C39.4246 8.92073 30.6044 0.100586 19.7555 0.100586ZM19.7555 37.9855C9.71232 37.9855 1.52527 29.8128 1.52527 19.7553C1.52527 9.69771 9.69794 1.52504 19.7555 1.52504C29.813 1.52504 37.9857 9.69771 37.9857 19.7553C37.9857 29.8128 29.813 37.9855 19.7555 37.9855Z" fill="#94A3B8"/>
<path d="M33.0505 26.0719H32.921V10.4029C32.921 9.43883 32.1296 8.64746 31.1656 8.64746H8.34544C7.38141 8.64746 6.59004 9.43883 6.59004 10.4029V26.0719H6.46055C5.8994 26.0719 5.43896 26.5324 5.43896 27.0935V27.3525C5.43896 28.2446 6.77709 29.9136 8.66199 29.9136H30.8203C32.7195 29.9136 34.0433 28.259 34.0433 27.3525V27.0935C34.0433 26.5324 33.5828 26.0719 33.0217 26.0719H33.0505ZM7.75551 26.0719V10.4029C7.75551 10.0719 8.0145 9.81293 8.34544 9.81293H31.18C31.5109 9.81293 31.7699 10.0719 31.7699 10.4029V26.0719H7.75551ZM22.2303 27.2374C22.2016 27.3093 22.1296 27.3525 22.0577 27.3525H17.439C17.367 27.3525 17.2951 27.3093 17.2663 27.2374H22.2303ZM6.60443 27.223H11.7555C14.5325 27.223 15.6404 27.223 16.0289 27.223L16.2016 27.6547C16.403 28.1583 16.9066 28.5036 17.4534 28.5036H22.0721C22.6332 28.5036 23.108 28.1726 23.3239 27.6547L23.4965 27.2086H32.921V27.223C32.6188 28.1151 31.7987 28.705 30.849 28.705H8.67637C7.75551 28.705 6.90659 28.1007 6.60443 27.223Z" fill="#94A3B8"/>
<path d="M29.6979 10.5464H9.81299C9.19429 10.5464 8.70508 11.05 8.70508 11.6543V24.2298C8.70508 24.8485 9.20867 25.3378 9.81299 25.3378H29.6979C30.3166 25.3378 30.8058 24.8342 30.8058 24.2298V11.6543C30.8058 11.0356 30.3022 10.5464 29.6979 10.5464ZM29.6835 11.6687V24.2155H9.82738V11.6687H29.6835Z" fill="#94A3B8"/>
</g>
</g>
</g>
<defs>
<clipPath id="clip0_2581_1041">
<rect width="40" height="40" fill="white"/>
</clipPath>
<clipPath id="clip1_2581_1041">
<rect width="40" height="40" fill="white"/>
</clipPath>
</defs>
</svg>
