<svg width="40" height="40" viewBox="0 0 40 40" fill="none" xmlns="http://www.w3.org/2000/svg">
<g clip-path="url(#clip0_2581_1058)">
<g clip-path="url(#clip1_2581_1058)">
<mask id="mask0_2581_1058" style="mask-type:luminance" maskUnits="userSpaceOnUse" x="0" y="0" width="40" height="40">
<path d="M39.4245 0H0V39.5683H39.4245V0Z" fill="white"/>
</mask>
<g mask="url(#mask0_2581_1058)">
<path d="M19.7554 39.4243C8.90645 39.4243 0.0863037 30.6042 0.0863037 19.7553C0.0863037 8.90634 8.92084 0.100586 19.7554 0.100586C30.5899 0.100586 39.4244 8.92073 39.4244 19.7696C39.4244 30.6186 30.6043 39.4387 19.7554 39.4387V39.4243ZM19.7554 1.53943C9.7122 1.53943 1.52515 9.71209 1.52515 19.7696C1.52515 29.8272 9.69781 37.9999 19.7554 37.9999C29.8129 37.9999 37.9856 29.8272 37.9856 19.7696C37.9856 9.71209 29.8129 1.53943 19.7554 1.53943Z" fill="#60A5FA"/>
<path d="M18.0143 17.4674C17.8561 15.5537 16.3165 14.0429 14.4316 13.8703C14.6906 13.7264 14.9352 13.5393 15.1654 13.3235C15.7553 12.7336 16.0719 11.9566 16.0719 11.1221C16.0719 10.2875 15.741 9.51056 15.1654 8.92063C14.5755 8.33071 13.7985 8.01416 12.964 8.01416C12.1294 8.01416 11.3525 8.3451 10.7625 8.92063C10.1726 9.51056 9.85607 10.2875 9.85607 11.1221C9.85607 11.9566 10.187 12.7336 10.7625 13.3235C10.9784 13.5393 11.223 13.7264 11.4964 13.8703C9.61146 14.0285 8.07189 15.5537 7.91362 17.453L7.69779 19.971C7.58268 21.3811 8.43161 22.6904 9.75535 23.1652L9.85607 23.194V30.8199C9.85607 31.194 10.1582 31.4962 10.5323 31.4962C10.9064 31.4962 11.2086 31.194 11.2086 30.8199V23.3379H14.7625V30.8199C14.7625 31.194 15.0647 31.4962 15.4388 31.4962C15.8129 31.4962 16.1151 31.194 16.1151 30.8199V23.194L16.2158 23.1652C17.5395 22.6904 18.3884 21.3811 18.2733 19.971L18.0575 17.453L18.0143 17.4674ZM11.7122 9.88466C12.0431 9.55373 12.4892 9.36668 12.964 9.36668C13.4388 9.36668 13.8848 9.55373 14.2158 9.88466C14.5467 10.2156 14.7338 10.6616 14.7338 11.1365C14.7338 11.6113 14.5467 12.0573 14.2158 12.3883C13.8848 12.7192 13.4388 12.9062 12.964 12.9062C12.4892 12.9062 12.0431 12.7192 11.7122 12.3883C11.3812 12.0573 11.1942 11.6113 11.1942 11.1365C11.1942 10.6616 11.3812 10.2156 11.7122 9.88466ZM16.4316 21.4386C16.1007 21.7983 15.6259 22.0142 15.1366 22.0142H10.8057C10.3021 22.0142 9.82729 21.7983 9.49635 21.4386C9.16542 21.0789 8.99276 20.5897 9.03592 20.0861L9.25175 17.5825C9.35247 16.2588 10.4892 15.2084 11.8273 15.2084H14.1151C15.4532 15.2084 16.5755 16.2444 16.6906 17.5825L16.9064 20.0861C16.9496 20.5753 16.7769 21.0789 16.446 21.4386H16.4316Z" fill="#60A5FA"/>
<path d="M31.7841 23.0936L29.7985 16.1295C29.482 14.9928 28.5323 14.1439 27.3956 13.9281C27.6978 13.7842 27.9712 13.5828 28.2158 13.3382C28.8057 12.7482 29.1223 11.9713 29.1223 11.1367C29.1223 10.3022 28.7913 9.52521 28.2158 8.93528C27.6259 8.34536 26.8489 8.02881 26.0143 8.02881C25.1798 8.02881 24.4028 8.35974 23.8129 8.93528C23.223 9.52521 22.9064 10.3022 22.9064 11.1367C22.9064 11.9713 23.2374 12.7482 23.8129 13.3382C24.0575 13.5828 24.3309 13.7698 24.6331 13.9281C23.4964 14.1439 22.5467 14.9928 22.2158 16.1295L20.2302 23.0936C20.1007 23.554 20.187 24.0288 20.4748 24.4029C20.7626 24.777 21.1942 24.9928 21.6546 24.9928H22.892V30.8346C22.892 31.2087 23.1942 31.5108 23.5683 31.5108C23.9424 31.5108 24.2446 31.2087 24.2446 30.8346V24.9928H27.7985V30.8346C27.7985 31.2087 28.1007 31.5108 28.4748 31.5108C28.8489 31.5108 29.151 31.2087 29.151 30.8346V24.9928H30.3884C30.8633 24.9928 31.2949 24.777 31.5683 24.4029C31.8561 24.0288 31.9424 23.554 31.8129 23.0936H31.7841ZM24.7482 9.88492C25.0791 9.55399 25.5251 9.36694 26 9.36694C26.4748 9.36694 26.9208 9.55399 27.2518 9.88492C27.5827 10.2159 27.7697 10.6619 27.7697 11.1367C27.7697 11.6115 27.5827 12.0576 27.2518 12.3885C26.9208 12.7195 26.4748 12.9065 26 12.9065C25.5251 12.9065 25.0791 12.7195 24.7482 12.3885C24.4172 12.0576 24.2302 11.6115 24.2302 11.1367C24.2302 10.6619 24.4172 10.2159 24.7482 9.88492ZM21.4532 23.6403L23.4964 16.4892C23.7122 15.7267 24.4172 15.2087 25.2086 15.2087H26.8057C27.5971 15.2087 28.3021 15.741 28.5179 16.4892L30.5611 23.6403H21.4676H21.4532Z" fill="#60A5FA"/>
</g>
</g>
</g>
<defs>
<clipPath id="clip0_2581_1058">
<rect width="40" height="40" fill="white"/>
</clipPath>
<clipPath id="clip1_2581_1058">
<rect width="40" height="40" fill="white"/>
</clipPath>
</defs>
</svg>
