<svg width="40" height="40" viewBox="0 0 40 40" fill="none" xmlns="http://www.w3.org/2000/svg">
<g clip-path="url(#clip0_2581_902)">
<g clip-path="url(#clip1_2581_902)">
<mask id="mask0_2581_902" style="mask-type:luminance" maskUnits="userSpaceOnUse" x="0" y="0" width="40" height="40">
<path d="M39.4245 0H0V39.5683H39.4245V0Z" fill="white"/>
</mask>
<g mask="url(#mask0_2581_902)">
<path d="M19.7555 0.10083C8.90657 0.10083 0.0864258 8.92097 0.0864258 19.7699C0.0864258 30.6188 8.90657 39.439 19.7555 39.439C30.6044 39.439 39.4246 30.6188 39.4246 19.7699C39.4246 8.92097 30.6044 0.10083 19.7555 0.10083ZM19.7555 37.9857C9.71232 37.9857 1.52527 29.8131 1.52527 19.7555C1.52527 9.69795 9.69794 1.52529 19.7555 1.52529C29.813 1.52529 37.9857 9.69795 37.9857 19.7555C37.9857 29.8131 29.813 37.9857 19.7555 37.9857Z" fill="#FCD34D"/>
<path d="M31.18 24.7772C31.1656 24.6333 31.1512 24.475 31.1368 24.3312V24.1873L29.4822 23.6117C29.7268 23.0218 29.8275 22.4607 29.7843 21.9139C29.6836 20.7196 28.921 19.5973 27.3383 18.2736V10.9355C27.3383 6.21605 25.5397 4.43188 24.0289 3.75562C21.439 2.60454 18.0001 3.94267 15.8419 5.71245C15.5973 5.59734 15.3383 5.53979 15.0793 5.53979C14.5613 5.53979 14.0865 5.75562 13.698 6.17288C12.3742 7.56857 11.8275 11.5398 12.0145 18.3599C10.5325 19.5973 9.82749 21.511 10.0721 23.6261L8.37425 24.1585V24.3599C8.33108 24.6621 8.30231 24.993 8.28792 25.324V25.6405C8.27353 25.6405 10.3311 24.9499 10.3311 24.9499C10.5037 25.5542 10.7627 26.1441 11.0793 26.7053C10.4462 27.4822 10.403 28.6045 10.9786 29.4391L12.4606 31.583C12.5613 31.7268 12.7196 31.8276 12.8922 31.8563C13.0649 31.8851 13.2519 31.8563 13.3958 31.7412L13.8994 31.3959C14.0433 31.2952 14.144 31.1369 14.1728 30.9643C14.2016 30.7916 14.1728 30.6189 14.0577 30.4607C13.8563 30.1729 13.4678 30.0866 13.18 30.2592L12.0721 28.6621C11.7699 28.2304 11.885 27.6549 12.3023 27.3527C12.5037 27.2089 12.7627 27.1513 13.0073 27.1945C13.2519 27.2376 13.4678 27.3815 13.6117 27.583L14.7196 29.1801C14.5901 29.2808 14.4894 29.4247 14.4606 29.5973C14.4318 29.77 14.4606 29.9427 14.5757 30.1009C14.7915 30.4031 15.1944 30.475 15.4966 30.2736L16.0289 29.8995C16.3311 29.6837 16.403 29.2664 16.2016 28.9786L14.7196 26.8348C14.3742 26.3312 13.8563 26.0002 13.2519 25.8995C12.9066 25.8419 12.5325 25.8563 12.2016 25.9571C11.957 25.4966 11.7555 25.0218 11.6117 24.5182L15.1081 23.3384L18.5901 34.9643V34.993C18.6189 35.0218 18.6189 35.065 18.6332 35.1081L18.9642 36.2304H20.4894L24.3599 23.2808L27.5109 24.3743C27.2807 24.6909 26.993 25.0362 26.6476 25.4391C26.403 25.3527 26.1584 25.2952 25.9138 25.2952C24.7771 25.2952 23.8707 26.216 23.8707 27.3384C23.8707 28.4607 24.7915 29.3815 25.9138 29.3815C27.0361 29.3815 27.957 28.4607 27.957 27.3384C27.957 26.216 27.8563 26.6045 27.6692 26.288C28.1584 25.7268 28.5325 25.252 28.8203 24.806L31.2376 25.6405L31.2088 25.3096C31.2088 25.1369 31.18 24.9499 31.1656 24.7772H31.18ZM25.9138 28.0434C25.5253 28.0434 25.1944 27.7268 25.1944 27.324C25.1944 26.9211 25.5109 26.6045 25.9138 26.6045C26.3167 26.6045 26.6332 26.9211 26.6332 27.324C26.6332 27.7268 26.3167 28.0434 25.9138 28.0434ZM11.3671 23.1657C11.2951 22.0722 11.5541 21.065 12.0865 20.2448C12.1153 20.806 12.144 21.3959 12.1728 22.029C12.1872 22.3887 12.2016 22.6909 12.216 22.8779L11.3814 23.1657H11.3671ZM19.7268 34.1153L17.7268 27.4391C18.8922 26.547 20.5469 26.4894 21.7699 27.3096L19.7268 34.1153ZM22.1584 25.9858C20.662 25.1657 18.7771 25.2089 17.3239 26.1009L16.3167 22.734C17.0505 21.583 17.4246 20.4894 17.4534 19.4103C18.1728 19.6837 18.9354 19.8276 19.7412 19.8276C20.5757 19.8276 21.439 19.6405 22.2448 19.2952C22.2448 20.3312 22.5613 21.3815 23.2232 22.475L22.1728 25.9858H22.1584ZM15.2088 12.7628C17.0217 12.2592 18.5037 11.1513 19.2232 9.72684C20.475 10.7772 22.2016 11.3671 24.0289 11.3671C25.8563 11.3671 24.0721 11.3671 24.0865 11.3671C24.2591 12.4894 24.3167 14.3887 24.2016 15.1945C23.885 17.252 21.6692 18.4894 19.7268 18.4894C18.7483 18.4894 17.8131 18.216 17.0217 17.7125C15.2519 16.5614 15.1368 14.9355 15.2088 12.7772V12.7628ZM26.0001 22.4031L24.3742 21.8419C23.626 20.6189 23.3958 19.4966 23.6548 18.4319C24.6764 17.6261 25.3239 16.5758 25.5109 15.3815C25.698 14.1873 25.5685 11.5398 25.2663 10.475C25.18 10.1729 24.8922 9.97144 24.5757 9.98583C22.9642 10.1153 20.7627 9.66929 19.4678 8.07216C19.3095 7.87072 19.0505 7.78439 18.7915 7.84195C18.5469 7.8995 18.3455 8.10094 18.2879 8.34554C17.9426 9.88511 16.4318 11.1513 14.4174 11.5542C14.1153 11.6117 13.8994 11.8707 13.885 12.1729C13.7843 14.4031 13.6836 16.9355 16.0433 18.6189C16.2304 19.6261 15.9714 20.6765 15.2807 21.8132L13.5109 22.4031C13.5109 22.2592 13.4966 22.1009 13.4822 21.9283C13.1656 16.029 13.1225 8.66209 14.6476 7.03619C14.7915 6.89231 14.921 6.82037 15.0649 6.82037C15.2088 6.82037 15.3095 6.87792 15.4534 7.00742C15.7124 7.22324 16.0865 7.22324 16.3311 7.00742C18.2016 5.30957 21.3383 4.00022 23.4678 4.94986C25.1081 5.68367 25.9858 7.74123 25.9858 10.9067V22.3887L26.0001 22.4031ZM28.2304 23.1801L27.3383 22.8779V20.0722C28.0577 20.7916 28.4174 21.4247 28.4606 22.029C28.4894 22.3743 28.4174 22.7484 28.216 23.1801H28.2304Z" fill="#FCD34D"/>
</g>
</g>
</g>
<defs>
<clipPath id="clip0_2581_902">
<rect width="40" height="40" fill="white"/>
</clipPath>
<clipPath id="clip1_2581_902">
<rect width="40" height="40" fill="white"/>
</clipPath>
</defs>
</svg>
