<svg width="40" height="40" viewBox="0 0 40 40" fill="none" xmlns="http://www.w3.org/2000/svg">
<g clip-path="url(#clip0_2581_951)">
<g clip-path="url(#clip1_2581_951)">
<mask id="mask0_2581_951" style="mask-type:luminance" maskUnits="userSpaceOnUse" x="0" y="0" width="40" height="40">
<path d="M39.4245 0H0V39.5683H39.4245V0Z" fill="white"/>
</mask>
<g mask="url(#mask0_2581_951)">
<path d="M19.7555 39.4246C8.90657 39.4246 0.0864258 30.6044 0.0864258 19.7555C0.0864258 8.90659 8.92096 0.10083 19.7555 0.10083C30.59 0.10083 39.4246 8.92097 39.4246 19.7699C39.4246 30.6188 30.6044 39.439 19.7555 39.439V39.4246ZM19.7555 1.53968C9.71233 1.53968 1.52527 9.71234 1.52527 19.7699C1.52527 29.8274 9.69794 38.0001 19.7555 38.0001C29.813 38.0001 37.9857 29.8274 37.9857 19.7699C37.9857 9.71234 29.813 1.53968 19.7555 1.53968Z" fill="#34D399"/>
<path d="M22.1583 9.62608H28.1727C29.1079 9.62608 29.8561 10.3743 29.8561 11.3095V24.7772C28.7626 24.7772 27.6691 24.2448 26.7914 23.6549C26.4029 23.3959 26.0719 23.1081 25.7554 22.8203C25.223 22.3167 24.3885 22.3167 23.8561 22.8203C23.5396 23.1081 23.1942 23.3959 22.8201 23.6549C21.9568 24.2448 20.8633 24.7772 19.7698 24.7772C18.6763 24.7772 17.5827 24.2592 16.705 23.6549C16.3165 23.3959 15.9856 23.1081 15.6691 22.8203C15.1367 22.3167 14.3022 22.3167 13.7698 22.8203C13.4532 23.1081 13.1079 23.3959 12.7338 23.6549C11.8705 24.2448 10.777 24.7772 9.68345 24.7772V11.3095C9.68345 10.3743 10.4317 9.62608 11.3669 9.62608H17.3813L17.6978 9.09371L18.4173 7.94263H11.3669C9.51079 7.94263 8 9.45342 8 11.3095V28.1441C8 30.0002 9.51079 31.511 11.3669 31.511H28.2014C30.0576 31.511 31.5683 30.0002 31.5683 28.1441V11.3095C31.5683 9.45342 30.0576 7.94263 28.2014 7.94263H21.1511L21.8705 9.09371L22.1871 9.62608H22.1583ZM9.65468 26.4606C11.2518 26.4606 12.6763 25.7124 13.6691 25.0505C14.0863 24.7628 14.4317 24.4894 14.705 24.2448C14.9784 24.475 15.3381 24.7628 15.741 25.0505C16.7194 25.7124 18.1583 26.4606 19.7554 26.4606C21.3525 26.4606 22.777 25.7124 23.7698 25.0505C24.187 24.7628 24.5324 24.4894 24.8058 24.2448C25.0791 24.475 25.4389 24.7628 25.8417 25.0505C26.8201 25.7124 28.259 26.4606 29.8561 26.4606V28.1441C29.8561 29.0793 29.1079 29.8275 28.1727 29.8275H11.3381C10.4029 29.8275 9.65468 29.0793 9.65468 28.1441V26.4606ZM20.4173 9.9714C20.2734 9.75558 20.0288 9.62608 19.7698 9.62608C19.5108 9.62608 19.2662 9.75558 19.1223 9.9714L16.6331 13.698C16.2014 14.3311 15.9856 15.0793 15.9856 15.8563V15.9426C15.9856 18.0433 17.6835 19.7268 19.7698 19.7268C21.8561 19.7268 23.554 18.029 23.554 15.9426V15.8563C23.554 15.0937 23.3237 14.3455 22.9065 13.698L20.4173 9.9714ZM19.7554 12.029L21.4964 14.6333C21.741 14.993 21.8705 15.4103 21.8705 15.8419V15.9282C21.8705 17.0937 20.9353 18.029 19.7698 18.029C18.6043 18.029 17.6691 17.0937 17.6691 15.9282V15.8419C17.6691 15.4103 17.7986 14.9786 18.0432 14.6333L19.7842 12.029H19.7554Z" fill="#34D399"/>
</g>
</g>
</g>
<defs>
<clipPath id="clip0_2581_951">
<rect width="40" height="40" fill="white"/>
</clipPath>
<clipPath id="clip1_2581_951">
<rect width="40" height="40" fill="white"/>
</clipPath>
</defs>
</svg>
