<svg width="40" height="40" viewBox="0 0 40 40" fill="none" xmlns="http://www.w3.org/2000/svg">
<g clip-path="url(#clip0_2581_1092)">
<g clip-path="url(#clip1_2581_1092)">
<mask id="mask0_2581_1092" style="mask-type:luminance" maskUnits="userSpaceOnUse" x="0" y="0" width="40" height="40">
<path d="M39.5683 0H0V39.4245H39.5683V0Z" fill="white"/>
</mask>
<g mask="url(#mask0_2581_1092)">
<path d="M19.7699 39.3814C8.92097 39.3814 0.10083 30.5612 0.10083 19.7123C0.10083 8.86337 8.93536 0.0576172 19.7699 0.0576172C30.6044 0.0576172 39.439 8.87776 39.439 19.7267C39.439 30.5756 30.6188 39.3957 19.7699 39.3957V39.3814ZM19.7699 1.49647C9.72673 1.49647 1.53968 9.66913 1.53968 19.7267C1.53968 29.7842 9.71234 37.9569 19.7699 37.9569C29.8274 37.9569 38.0001 29.7842 38.0001 19.7267C38.0001 9.66913 29.8274 1.49647 19.7699 1.49647Z" fill="#60A5FA"/>
<path d="M21.8705 21.5255C24.3885 20.7197 26.2878 18.4895 26.6043 15.7989H27.1223C27.5828 15.7989 27.9425 15.4248 27.9425 14.9787C27.9425 14.5327 27.5684 14.1586 27.1223 14.1586H26.3022C26.3022 11.3672 24.5756 8.99311 22.1295 8.01469C21.9712 7.28088 21.3094 6.71973 20.518 6.71973H18.8633C18.072 6.71973 17.4245 7.26649 17.2518 8.01469C14.8058 8.97872 13.0792 11.3672 13.0792 14.1586H12.259C11.7986 14.1586 11.4389 14.5327 11.4389 14.9787C11.4389 15.4248 11.813 15.7989 12.259 15.7989H12.9209C13.2518 18.5039 15.1367 20.7197 17.6547 21.5255C13.9137 21.6694 10.9065 24.7629 10.9065 28.5471V30.878C10.9065 31.7701 11.5108 32.5183 12.3597 32.7197V28.5471C12.3741 25.4823 14.8777 22.9931 17.9425 22.9931H21.5971C24.6619 22.9931 27.1511 25.4823 27.1511 28.5471V32.7197C28.0144 32.5183 28.6187 31.7701 28.6187 30.878V28.5471C28.6187 24.7629 25.6115 21.6694 21.8705 21.5255ZM17.223 9.85642V10.8492C17.223 11.3097 17.5971 11.6694 18.0432 11.6694C18.4892 11.6694 18.8633 11.2953 18.8633 10.8492V8.3744H20.518V10.8492C20.518 11.3097 20.8921 11.6694 21.3381 11.6694C21.7842 11.6694 22.1583 11.2953 22.1583 10.8492V9.85642C23.6403 10.7197 24.6331 12.3168 24.6331 14.1442H14.7194C14.7194 12.3025 15.7122 10.7053 17.1943 9.85642H17.223ZM14.3741 15.7989H25.1511C24.7482 18.4176 22.4892 20.4176 19.7554 20.4176C17.0216 20.4176 14.7626 18.4032 14.3597 15.7989H14.3741Z" fill="#60A5FA"/>
</g>
</g>
</g>
<defs>
<clipPath id="clip0_2581_1092">
<rect width="40" height="40" fill="white"/>
</clipPath>
<clipPath id="clip1_2581_1092">
<rect width="40" height="40" fill="white"/>
</clipPath>
</defs>
</svg>
