<svg width="40" height="40" viewBox="0 0 40 40" fill="none" xmlns="http://www.w3.org/2000/svg">
<g clip-path="url(#clip0_2581_967)">
<g clip-path="url(#clip1_2581_967)">
<mask id="mask0_2581_967" style="mask-type:luminance" maskUnits="userSpaceOnUse" x="0" y="0" width="40" height="40">
<path d="M39.4245 0H0V39.5683H39.4245V0Z" fill="white"/>
</mask>
<g mask="url(#mask0_2581_967)">
<path d="M19.7555 0.10083C8.90657 0.10083 0.0864258 8.92097 0.0864258 19.7699C0.0864258 30.6188 8.90657 39.439 19.7555 39.439C30.6044 39.439 39.4246 30.6188 39.4246 19.7699C39.4246 8.92097 30.6044 0.10083 19.7555 0.10083ZM19.7555 37.9857C9.71233 37.9857 1.52528 29.8131 1.52528 19.7555C1.52528 9.69795 9.69794 1.52529 19.7555 1.52529C29.813 1.52529 37.9857 9.69795 37.9857 19.7555C37.9857 29.8131 29.813 37.9857 19.7555 37.9857Z" fill="#34D399"/>
<path d="M26.2447 13.6836C26.2447 13.5541 26.2447 13.4246 26.2447 13.3095V10.4174C26.2447 10.144 26.1152 9.91382 25.8994 9.76994C25.6548 9.62605 25.3383 9.62605 25.1081 9.76994C24.8778 9.89944 24.7627 10.1297 24.7627 10.403V12.2016C24.5325 12.2879 24.0577 12.5469 22.8634 13.2663C22.7915 13.3095 22.734 13.3527 22.662 13.3814C23.5397 11.4678 23.2232 9.22318 21.7843 7.64044L20.6188 6.35987C20.5901 6.3167 20.5469 6.28792 20.5037 6.25915V3.98577C20.5037 3.51095 20.1296 3.25195 19.7555 3.25195C19.3814 3.25195 19.0073 3.51095 19.0073 3.98577V6.25915C18.9642 6.28792 18.9354 6.33109 18.8922 6.35987L17.7268 7.64044C16.2735 9.22318 15.957 11.4822 16.8491 13.3814C16.7915 13.3527 16.734 13.3095 16.662 13.2663C15.4534 12.5469 14.9642 12.2735 14.7483 12.1872V10.3886C14.7483 10.1872 14.662 10.0002 14.5181 9.87066C14.3742 9.72677 14.1872 9.65483 13.9857 9.65483C13.5829 9.65483 13.2663 9.98577 13.2519 10.3886V13.2807C13.2519 13.4246 13.2519 13.5685 13.2519 13.7124C13.2519 14.921 13.2232 16.2879 13.8131 17.3671C13.4822 17.5541 13.2663 17.9426 13.2663 18.3455V20.0865C13.2663 20.8922 13.4534 21.698 13.8131 22.4318C13.4822 22.6189 13.2519 23.0073 13.2663 23.4102V25.1512C13.2663 26.993 14.2879 28.7771 15.8706 29.698C15.9138 29.7268 16.1872 29.8994 16.4893 30.0721C18.144 31.0505 18.734 31.3815 18.9929 31.4822V35.7412C18.9929 36.216 19.367 36.475 19.7411 36.475C20.1152 36.475 20.4893 36.216 20.4893 35.7412V31.4822C20.7483 31.3815 21.3239 31.0505 22.8347 30.1584C23.2088 29.9426 23.5541 29.7268 23.5973 29.7124H23.6116C25.2232 28.7627 26.216 27.0217 26.216 25.1656V23.4246C26.216 23.0217 26.0001 22.6332 25.6692 22.4318C26.2591 21.3527 26.2447 19.957 26.2304 18.7196C26.2304 18.5901 26.2304 18.475 26.2304 18.3599C26.2591 17.9426 26.0289 17.5541 25.6836 17.3671C26.2735 16.2879 26.2591 14.8922 26.2447 13.6548V13.6836ZM21.4102 24.2591C21.1224 24.4318 20.8203 24.5901 20.4893 24.7771V23.6117C20.4893 22.2735 21.2088 21.0361 22.3598 20.3599L24.7627 18.9642C24.921 22.2735 23.7268 22.9498 21.4102 24.2591ZM20.4893 19.698V18.5325C20.4893 17.1944 21.2088 15.957 22.3598 15.2807L24.7627 13.885C24.921 17.1944 23.7268 17.8707 21.4102 19.18C21.1224 19.3527 20.8203 19.5109 20.4893 19.698ZM24.7483 24.0433V25.2088C24.7483 26.5469 24.0289 27.7843 22.8778 28.4606L20.475 29.8563C20.3167 26.5469 21.5109 25.8707 23.8275 24.5613C24.1152 24.403 24.4174 24.2304 24.734 24.0433H24.7483ZM18.6764 8.83469C18.734 8.74836 19.2232 8.21598 19.5109 7.89944C19.5973 7.79872 19.6692 7.71239 19.7411 7.65483L20.662 8.66202C21.4246 9.49656 21.7555 10.5613 21.6116 11.6548C21.4534 12.8203 20.7771 13.8563 19.7555 14.5325C18.7627 13.885 18.1009 12.8779 17.9138 11.7556C17.7411 10.7052 18.0145 9.66922 18.6908 8.83469H18.6764ZM19.0073 19.7124L16.6045 18.3167C15.4534 17.6404 14.734 16.3886 14.734 15.0649V13.8994C15.0505 14.0865 15.3527 14.2591 15.6404 14.4174C17.9714 15.7268 19.1656 16.403 18.9929 19.7124H19.0073ZM14.7483 24.0433C15.0649 24.2304 15.367 24.403 15.6548 24.5613C17.9858 25.8707 19.18 26.5469 19.0217 29.8563L16.6188 28.4606C15.4678 27.7843 14.7483 26.5325 14.7483 25.2088V24.0433ZM19.0073 24.7915L16.6045 23.3958C15.4534 22.7196 14.734 21.4678 14.734 20.144V18.9786C15.0505 19.1656 15.3527 19.3383 15.6404 19.4966C17.9714 20.8059 19.1656 21.4822 19.0073 24.7915Z" fill="#34D399"/>
</g>
</g>
</g>
<defs>
<clipPath id="clip0_2581_967">
<rect width="40" height="40" fill="white"/>
</clipPath>
<clipPath id="clip1_2581_967">
<rect width="40" height="40" fill="white"/>
</clipPath>
</defs>
</svg>
