<svg width="164" height="164" viewBox="0 0 164 164" fill="none" xmlns="http://www.w3.org/2000/svg">
<g clip-path="url(#clip0_2082_80149)">
<path fill-rule="evenodd" clip-rule="evenodd" d="M7.23535 103.813H50.929V60.1875H7.23535V103.813ZM29.1098 101.575C39.9025 101.575 48.7041 92.7704 48.7041 81.9795C48.7041 71.1877 39.9016 62.3852 29.1098 62.3852C18.3036 62.3852 9.50193 71.1877 9.50193 81.9795C9.50193 92.7704 18.3045 101.575 29.1098 101.575Z" fill="black"/>
<path fill-rule="evenodd" clip-rule="evenodd" d="M41.7955 91.749C40.4665 91.1205 39.0953 90.5852 37.692 90.1469C38.3004 87.9637 38.673 85.5457 38.7419 82.9745H45.0567C44.8701 86.1594 43.7343 89.2154 41.7955 91.749ZM37.7465 74.1031C39.1697 73.658 40.5597 73.113 41.9061 72.4721C43.7857 74.9714 44.8821 77.9719 45.0567 81.0942H38.7419C38.6858 78.5945 38.3267 76.2174 37.7465 74.1031ZM30.0355 75.4159C32.0681 75.3478 34.0878 75.0651 36.061 74.5727C36.5723 76.5347 36.8905 78.746 36.9595 81.0951H30.0364V75.4159H30.0355ZM22.1042 74.5727C24.039 75.056 26.0563 75.347 28.1288 75.4159V81.0951H21.1921C21.2514 78.8937 21.5574 76.7059 22.1042 74.5727ZM16.2727 72.4312C17.6118 73.0856 18.9976 73.6396 20.4187 74.0886C19.8385 76.2165 19.4794 78.5937 19.4097 81.0942H13.0813C13.2701 77.9556 14.3802 74.9423 16.2727 72.4312ZM20.9156 72.4593C19.7146 72.0875 18.5418 71.6303 17.406 71.0912C19.2245 69.1476 21.4999 67.6894 24.0254 66.849C22.767 68.258 21.7035 70.1927 20.9156 72.4593ZM28.1288 73.6887C26.26 73.6322 24.4025 73.3775 22.5875 72.929C23.845 69.2534 25.835 66.6831 28.1288 66.1301V73.6887ZM35.5633 72.9153C33.7808 73.3578 31.9431 73.6198 30.0355 73.6887V66.1445C32.3157 66.6967 34.3058 69.2534 35.5633 72.9153ZM40.7311 71.0631C39.5996 71.605 38.4314 72.0668 37.2351 72.4448C36.4473 70.1783 35.3838 68.258 34.1399 66.8482C36.6527 67.6844 38.9179 69.1329 40.7311 71.0631ZM40.5925 93.1316C39.4806 92.611 38.3361 92.1631 37.1662 91.7907C36.3784 94.0011 35.3284 95.8534 34.1118 97.2359C36.5724 96.4126 38.7963 95.0041 40.5925 93.1316ZM24.039 97.2359C22.8087 95.8534 21.7724 94.0003 20.9709 91.7907C19.795 92.1535 18.6454 92.5967 17.5302 93.1171C19.3323 94.9993 21.5665 96.4131 24.039 97.2359ZM16.3833 91.7907C17.7005 91.1486 19.0629 90.6037 20.4596 90.1605C19.8521 87.9773 19.4786 85.5593 19.4097 82.9754H13.0813C13.2646 86.1803 14.416 89.2541 16.3833 91.7907ZM28.6402 64.2089C28.7789 64.2089 28.9312 64.1953 29.0826 64.1953C29.2349 64.1953 29.3872 64.1953 29.5395 64.2089C39.1435 64.4574 46.9098 72.3759 46.9098 82.0208C46.9098 91.8452 38.8951 99.8615 29.0698 99.8615C19.2591 99.8615 11.2444 91.8452 11.2444 82.0208C11.2427 72.3623 19.0225 64.4446 28.6402 64.2089ZM30.0355 88.8605C32.0809 88.9149 34.0709 89.2059 36.0193 89.6764C36.5579 87.6591 36.8897 85.3926 36.9586 82.9745H30.0355V88.8605ZM22.1459 89.69C24.1049 89.2011 26.1107 88.923 28.1288 88.8605V82.9745H21.1921C21.2611 85.3926 21.6073 87.6727 22.1459 89.69ZM28.1288 90.5757C26.2494 90.6438 24.4252 90.8931 22.6564 91.3202C23.9139 94.8996 25.8631 97.3738 28.1288 97.9259V90.5757ZM35.4935 91.3202C33.7053 90.8814 31.8759 90.6319 30.0355 90.5757V97.9123C32.2885 97.3593 34.2369 94.886 35.4935 91.3202ZM68.4652 96.3919H55.7106V95.3965C56.9681 95.3965 57.8938 95.2731 58.4468 95.0655C59.0271 94.8443 59.4006 94.4155 59.5801 93.8361C59.7597 93.2558 59.843 92.274 59.843 90.9348V73.1638C59.843 71.8373 59.7469 70.8147 59.5529 70.2208C59.3589 69.6125 58.9582 69.1837 58.4196 68.9633C57.8811 68.7421 56.969 68.6451 55.7115 68.6451V67.6224H68.4652V68.6451H67.7046C66.7372 68.6451 66.0191 68.7557 65.5495 68.9897C65.0798 69.239 64.7616 69.6805 64.5957 70.3025C64.4434 70.938 64.3473 71.9054 64.3473 73.1629V90.9339C64.3473 92.2731 64.4442 93.2686 64.6093 93.8352C64.7897 94.4155 65.1623 94.8443 65.729 95.0646C66.282 95.2722 67.2077 95.3956 68.4652 95.3956V96.3919ZM90.7685 81.2057C92.7722 82.2003 94.3045 83.2094 95.3 84.2184C96.309 85.2556 96.8204 86.6926 96.8204 88.5159C96.8204 89.787 96.5711 90.8939 96.0878 91.8741C95.5756 92.8415 94.8167 93.6991 93.8076 94.458C93.1321 94.9785 92.3759 95.3849 91.5691 95.6611C90.7532 95.9503 89.7731 96.1443 88.6262 96.2541C87.4648 96.3375 85.9461 96.3919 84.053 96.3919H70.1924V95.342C71.381 95.342 72.2513 95.2178 72.7899 94.9694C73.3285 94.7201 73.6603 94.2649 73.8271 93.6565C73.9921 93.0618 74.0619 92.1225 74.0619 90.8778V73.2463C74.0619 71.9335 73.9649 70.9661 73.8134 70.3722C73.6339 69.7784 73.2604 69.336 72.7218 69.1147C72.196 68.8799 71.3401 68.7421 70.1932 68.7421V67.6233H83.7084C86.8446 67.6233 89.608 68.1899 91.9988 69.2679C94.3615 70.3595 95.5629 72.2942 95.5629 75.0577C95.5629 76.55 95.2455 77.7386 94.5955 78.5673C93.9591 79.4096 92.6888 80.2945 90.7685 81.2057ZM78.5525 82.4079V91.9974C78.5525 93.1724 78.6495 93.8769 78.8154 94.0717C78.9949 94.2913 79.4518 94.4708 80.1146 94.5269C80.8055 94.6103 82.0349 94.6503 83.7493 94.6503C86.4974 94.6503 88.5436 94.1534 89.8428 93.1443C91.1539 92.1506 91.8184 90.5885 91.8184 88.4878C91.8184 86.4842 91.0859 84.9629 89.6063 83.9411C88.142 82.9175 85.9452 82.407 83.0422 82.407L78.5525 82.4079ZM78.5525 69.6397V80.3906H82.6994C84.9642 80.3906 86.899 80.0452 88.4475 79.3543C90.0232 78.6635 90.8238 77.2953 90.8238 75.2917C90.8238 73.8002 90.4367 72.6252 89.6905 71.7965C88.9444 70.9534 87.9642 70.3731 86.8173 70.083C85.656 69.7928 84.3015 69.6405 82.8227 69.6405L78.5525 69.6397ZM114.979 82.7542L121.361 90.9348C122.676 92.5913 123.753 93.7527 124.54 94.3746C125.356 94.9957 126.212 95.3565 127.11 95.3965V96.3919H120.117L110.237 83.4034H107.53V90.9195C107.53 91.8732 107.571 92.633 107.639 93.1597C107.723 93.7246 107.902 94.167 108.152 94.4861C108.399 94.8034 108.802 95.0663 109.298 95.1906C109.795 95.3284 110.502 95.3965 111.386 95.3965V96.3919H99.1703V95.3965C100.358 95.3965 101.229 95.2731 101.754 95.0238C102.306 94.7762 102.638 94.3193 102.804 93.7246C102.942 93.1035 103.038 92.1642 103.038 90.9348V73.191C103.038 71.8782 102.927 70.9108 102.789 70.3025C102.609 69.7078 102.222 69.2798 101.697 69.045C101.172 68.7821 100.316 68.6723 99.1695 68.6723V67.6224H108.414C110.265 67.6224 111.744 67.6769 112.794 67.733C113.872 67.7883 114.811 67.9125 115.612 68.0231C116.427 68.1618 117.158 68.3413 117.808 68.5481C119.205 69.1428 120.324 70.0404 121.098 71.229C121.885 72.4168 122.286 73.8129 122.286 75.3606C122.286 77.5165 121.623 79.1467 120.352 80.2664C119.068 81.3716 117.245 82.2284 114.979 82.7542ZM107.53 81.3861C109.45 81.3861 111.082 81.2618 112.436 80.9853C113.733 80.7376 114.932 80.1238 115.891 79.2165C116.831 78.2908 117.3 76.9091 117.3 75.1266C117.3 73.2191 116.706 71.7684 115.572 70.8147C114.425 69.8754 112.699 69.3913 110.378 69.3913C109.466 69.3913 108.802 69.4329 108.415 69.5155C108.056 69.5852 107.779 69.7639 107.696 70.0132C107.599 70.2616 107.531 70.7313 107.531 71.3949L107.53 81.3861ZM128.146 67.6224H137.418C140.168 67.6224 142.476 67.7747 144.355 68.0504C146.22 68.3405 147.85 68.8101 149.192 69.4185C150.556 70.0505 151.796 70.921 152.854 71.9888C154.097 73.2463 155.093 74.725 155.756 76.4522C156.432 78.1657 156.765 80.0588 156.765 82.0625C156.765 84.4805 156.336 86.5956 155.506 88.3908C154.65 90.1886 153.475 91.6946 151.942 92.8823C150.374 94.1003 148.587 95.0058 146.677 95.5496C144.715 96.1009 142.531 96.3919 140.223 96.3919H128.146V95.3148C129.321 95.3148 130.205 95.1906 130.731 94.9277C131.256 94.6784 131.615 94.2368 131.753 93.6285C131.919 93.0354 132.001 92.0944 132.001 90.865V73.2599C132.001 71.9607 131.905 70.9933 131.738 70.3995C131.67 70.1218 131.539 69.8637 131.354 69.6455C131.17 69.4273 130.937 69.2549 130.674 69.142C130.136 68.9071 129.278 68.7693 128.145 68.7693V67.6224H128.146ZM136.506 91.1143V93.4489C136.506 93.7944 136.56 94.0717 136.659 94.2368C136.755 94.3899 136.976 94.5125 137.28 94.5542C137.597 94.6239 138.096 94.6503 138.772 94.6503C141.426 94.6503 143.761 94.2079 145.71 93.3239C147.671 92.4246 149.163 91.0573 150.2 89.2212C151.237 87.3818 151.762 85.0599 151.762 82.2964C151.762 79.6444 151.237 77.3643 150.158 75.4567C149.108 73.5637 147.574 72.113 145.639 71.132C143.692 70.1374 141.37 69.6397 138.744 69.6397C137.735 69.6397 137.086 69.7784 136.795 70.0404C136.671 70.1646 136.574 70.4556 136.546 70.8419C136.519 71.2426 136.504 72.0858 136.504 73.3152V91.1143H136.506Z" fill="black"/>
</g>
<defs>
<clipPath id="clip0_2082_80149">
<rect width="164" height="164" fill="white"/>
</clipPath>
</defs>
</svg>
