<svg width="40" height="40" viewBox="0 0 40 40" fill="none" xmlns="http://www.w3.org/2000/svg">
<path d="M24.5033 32.7131C27.1266 32.684 29.6235 32.2954 31.829 31.557C32.3828 31.3724 32.9172 31.1683 33.4127 30.9351C32.8006 32.4314 31.897 33.6847 30.7214 34.6174C28.3993 36.3274 25.6692 37.4933 22.6961 37.9402C23.4443 36.6578 24.0466 34.8409 24.5033 32.7131ZM12.1448 36.3566C12.0865 36.308 12.0282 36.2691 11.9602 36.24C10.9303 35.7348 10.5125 33.4321 11.0469 29.915C13.0289 30.8088 15.1955 31.5181 17.469 32.0039C19.1887 32.3731 20.9084 32.5965 22.5795 32.684C21.7537 36.2594 20.7044 38.1346 20.0049 38.1346C19.9563 38.1346 19.9174 38.1443 19.8785 38.1443C17.1095 38.1151 14.4863 37.4836 12.1448 36.3566ZM2.55526 24.9696C2.3998 24.3673 2.30265 23.7454 2.25407 23.1236C2.87588 24.0078 3.63371 24.8725 4.52757 25.708C5.88778 26.9614 7.50061 28.0884 9.30775 29.0503C8.93855 31.11 8.83167 32.9658 9.06485 34.4717C5.96551 32.1205 3.64343 28.8074 2.55526 24.9696ZM25.6789 19.9757C25.6789 19.247 25.6692 18.5183 25.6497 17.7897C27.9621 17.6342 30.1093 17.0318 31.8581 16.0214C33.4807 19.2373 34.3551 22.6281 34.3454 25.8246C34.3454 26.7476 34.2677 27.6318 34.1219 28.4673C33.2864 28.9823 32.3245 29.4195 31.2461 29.7887C29.3223 30.4396 27.1654 30.7894 24.8628 30.8477C25.4068 27.5443 25.6789 23.7066 25.6789 19.9757ZM17.8577 30.1676C15.555 29.6721 13.3787 28.9434 11.4064 28.0204C12.0573 25.1057 13.2621 21.5788 15.1664 17.6633C15.4481 17.0998 15.7299 16.5363 16.0214 15.9922C17.3524 16.5946 18.8098 17.0707 20.3352 17.3913C21.4914 17.6439 22.6476 17.7702 23.7843 17.8091C23.8037 18.5086 23.8135 19.2276 23.8135 19.966C23.8135 24.3478 23.4637 27.9815 22.9585 30.8283C21.2971 30.7505 19.5871 30.5368 17.8577 30.1676ZM5.80034 24.3381C4.22638 22.8807 3.13821 21.3359 2.5844 19.8008C3.02162 18.0811 3.86689 16.3517 5.12023 14.7C6.30556 13.1261 7.78237 11.7173 9.47292 10.5028C9.95871 11.3869 10.6388 12.2419 11.5132 13.0581C12.3391 13.8353 13.3009 14.5349 14.3697 15.147C14.0782 15.7105 13.7867 16.274 13.505 16.8472C11.8533 20.2283 10.5028 23.8523 9.71581 27.146C8.24872 26.3201 6.92737 25.3777 5.80034 24.3381ZM24.4158 7.05368C26.5339 8.62764 28.4673 10.6582 30.0899 13.0289C30.4008 13.4758 30.6825 13.9422 30.9643 14.3988C29.4778 15.2538 27.6026 15.7688 25.572 15.9145C25.3971 12.7083 25.0182 9.61866 24.4158 7.05368ZM20.7238 15.5744C19.3733 15.2927 18.1006 14.8749 16.9249 14.36C18.6641 11.3189 20.5587 8.68594 22.4338 6.72334C23.0168 9.02599 23.5123 12.1253 23.7163 15.9631C22.7253 15.9145 21.7246 15.7882 20.7238 15.5744ZM12.7763 11.6978C12.0087 10.9789 11.4258 10.2308 11.0274 9.47292C12.7763 8.42361 14.7 7.56862 16.7501 6.95652C17.9743 6.58732 19.2082 6.31528 20.4421 6.13068C18.6641 8.12242 16.8861 10.6582 15.2538 13.5244C14.3308 12.9803 13.4953 12.3682 12.7763 11.6978ZM8.77338 5.77119C8.74423 5.86835 8.7248 5.95579 8.69565 6.06267C8.51105 6.93709 8.53048 7.84066 8.75394 8.7248C6.75249 10.1044 5.01336 11.7367 3.624 13.573C3.20622 14.1365 2.8273 14.7 2.47753 15.2733C3.51712 11.4647 5.76148 8.15157 8.77338 5.77119ZM10.5222 6.4513C10.7263 5.48943 11.3092 4.62472 12.2031 3.90575C14.3697 3.2548 16.8958 3.41025 19.5579 4.38183C18.4406 4.57615 17.3233 4.83847 16.2254 5.16881C14.1754 5.78091 12.2419 6.62618 10.4639 7.64634C10.4153 7.23828 10.4348 6.83993 10.5222 6.4513ZM25.6109 3.9932C26.2521 3.57542 26.8351 3.29366 27.3306 3.17707C28.2633 3.55599 29.1863 4.03206 30.0704 4.63444C28.6519 4.28467 27.1557 4.07093 25.6109 3.9932ZM22.4824 2.00146C23.2402 2.0889 24.0369 2.2152 24.8725 2.40952C24.3575 2.69128 23.8135 3.03133 23.2694 3.44911C23.0168 2.90503 22.7544 2.41924 22.4824 2.00146ZM20.4615 2.73014C19.6162 2.40952 18.7904 2.15691 17.9645 1.98203C18.6252 1.9043 19.2859 1.86543 19.966 1.86543C20.2866 1.86543 20.6752 2.24435 21.0736 2.98275C20.8793 2.90503 20.6655 2.81759 20.4615 2.73014ZM0 20.0049C0 21.9092 0.272042 23.7454 0.767549 25.4846C0.796696 25.6012 0.825843 25.7178 0.864707 25.8343C0.874423 25.8538 0.884137 25.8732 0.893853 25.9024C3.41996 34.0539 11.0274 40 20.0049 40C24.1535 40 28.0107 38.7272 31.2169 36.5509C31.2461 36.5315 31.2849 36.512 31.3141 36.4926C31.5084 36.3663 31.6833 36.2303 31.8679 36.0845C35.5502 33.3641 38.2609 29.4195 39.4073 24.8531C39.4753 24.6393 39.5239 24.4256 39.5725 24.2118C39.5822 24.1632 39.5822 24.1146 39.5919 24.0564C39.864 22.7447 40.0097 21.3845 40.0097 19.9951C40.0097 17.2941 39.4851 14.6806 38.4358 12.2128C38.2317 11.7367 37.6876 11.523 37.2213 11.7173C36.7452 11.9116 36.5217 12.4654 36.7258 12.9317C37.6682 15.1664 38.154 17.537 38.154 19.9854C38.154 21.4817 37.9694 22.9487 37.6196 24.3381C37.3476 25.2222 36.8618 26.0384 36.1914 26.7768C36.2108 26.4562 36.2205 26.1453 36.2205 25.8149C36.2303 22.2492 35.2393 18.4795 33.4127 14.9332C34.7535 13.7867 35.6085 12.3585 35.8999 10.7651C35.9971 10.2599 35.657 9.77411 35.1518 9.68666C34.6466 9.58951 34.1608 9.92956 34.0636 10.4348C33.8693 11.4841 33.3252 12.4557 32.4702 13.2718C32.2079 12.8346 31.9262 12.3974 31.6347 11.9699C30.0024 9.57979 28.0593 7.50061 25.9412 5.85863C28.7394 6.04323 31.3335 6.72334 33.4127 7.88924C33.743 8.07384 34.1705 8.07384 34.4814 7.81151C34.8798 7.48117 34.9283 6.89823 34.598 6.49988C31.6055 2.30265 26.4173 0 20.0049 0C8.96769 0.00971581 0 8.97741 0 20.0049Z" fill="#15353F"/>
<mask id="mask0_2051_46647" style="mask-type:luminance" maskUnits="userSpaceOnUse" x="0" y="0" width="41" height="41">
<path d="M24.5035 32.7141C27.1268 32.685 29.6238 32.2963 31.8292 31.5579C32.383 31.3733 32.9174 31.1693 33.4129 30.9361C32.8008 32.4324 31.8973 33.6857 30.7216 34.6184C28.3996 36.3284 25.6694 37.4943 22.6964 37.9412C23.4445 36.6587 24.0469 34.8419 24.5035 32.7141ZM12.145 36.3575C12.0867 36.309 12.0284 36.2701 11.9604 36.241C10.9305 35.7357 10.5128 33.4331 11.0471 29.916C13.0291 30.8098 15.1958 31.5191 17.4693 32.0049C19.189 32.3741 20.9087 32.5975 22.5798 32.685C21.7539 36.2604 20.7046 38.1355 20.0051 38.1355C19.9565 38.1355 19.9177 38.1453 19.8788 38.1453C17.1098 38.1161 14.4865 37.4846 12.145 36.3575ZM2.5555 24.9706C2.40005 24.3682 2.30289 23.7464 2.25431 23.1246C2.87612 24.0087 3.63396 24.8735 4.52781 25.709C5.88802 26.9624 7.50085 28.0894 9.30799 29.0513C8.93879 31.111 8.83192 32.9667 9.0651 34.4727C5.96575 32.1215 3.64367 28.8084 2.5555 24.9706ZM25.6791 19.9767C25.6791 19.248 25.6694 18.5193 25.65 17.7906C27.9624 17.6352 30.1095 17.0328 31.8584 16.0224C33.4809 19.2383 34.3554 22.6291 34.3456 25.8256C34.3456 26.7486 34.2679 27.6327 34.1222 28.4683C33.2866 28.9832 32.3247 29.4205 31.2463 29.7897C29.3226 30.4406 27.1657 30.7904 24.863 30.8487C25.4071 27.5453 25.6791 23.7076 25.6791 19.9767ZM17.8579 30.1686C15.5553 29.6731 13.3789 28.9444 11.4066 28.0214C12.0576 25.1066 13.2623 21.5798 15.1666 17.6643C15.4484 17.1008 15.7301 16.5373 16.0216 15.9932C17.3527 16.5956 18.8101 17.0717 20.3354 17.3923C21.4916 17.6449 22.6478 17.7712 23.7846 17.8101C23.804 18.5096 23.8137 19.2286 23.8137 19.967C23.8137 24.3488 23.4639 27.9825 22.9587 30.8293C21.2973 30.7515 19.5873 30.5378 17.8579 30.1686ZM5.80058 24.3391C4.22662 22.8817 3.13845 21.3369 2.58465 19.8018C3.02186 18.0821 3.86714 16.3527 5.12048 14.701C6.3058 13.127 7.78261 11.7182 9.47316 10.5038C9.95895 11.3879 10.6391 12.2429 11.5135 13.059C12.3393 13.8363 13.3012 14.5358 14.3699 15.1479C14.0785 15.7114 13.787 16.275 13.5052 16.8482C11.8535 20.2293 10.503 23.8533 9.71606 27.147C8.24897 26.3211 6.92762 25.3787 5.80058 24.3391ZM24.4161 7.05466C26.5341 8.62862 28.4676 10.6592 30.0901 13.0299C30.401 13.4768 30.6828 13.9432 30.9645 14.3998C29.478 15.2548 27.6029 15.7697 25.5723 15.9155C25.3974 12.7093 25.0185 9.61963 24.4161 7.05466ZM20.7241 15.5754C19.3736 15.2937 18.1008 14.8759 16.9252 14.3609C18.6643 11.3199 20.5589 8.68691 22.4341 6.72432C23.017 9.02697 23.5125 12.1263 23.7165 15.9641C22.7255 15.9155 21.7248 15.7892 20.7241 15.5754ZM12.7765 11.6988C12.009 10.9798 11.426 10.2317 11.0277 9.47389C12.7765 8.42459 14.7003 7.5696 16.7503 6.9575C17.9745 6.5883 19.2084 6.31626 20.4423 6.13165C18.6643 8.1234 16.8863 10.6592 15.2541 13.5254C14.3311 12.9813 13.4955 12.3692 12.7765 11.6988ZM8.77362 5.77217C8.74447 5.86933 8.72504 5.95677 8.6959 6.06364C8.5113 6.93807 8.53073 7.84164 8.75419 8.72577C6.75273 10.1054 5.0136 11.7377 3.62424 13.574C3.20646 14.1375 2.82755 14.701 2.47778 15.2742C3.51737 11.4656 5.76172 8.15254 8.77362 5.77217ZM10.5225 6.45228C10.7265 5.49041 11.3094 4.6257 12.2033 3.90673C14.3699 3.25577 16.896 3.41123 19.5582 4.38281C18.4409 4.57713 17.3235 4.83945 16.2257 5.16979C14.1756 5.78188 12.2422 6.62716 10.4642 7.64732C10.4156 7.23926 10.435 6.84091 10.5225 6.45228ZM25.6111 3.99418C26.2524 3.5764 26.8353 3.29464 27.3308 3.17805C28.2635 3.55696 29.1865 4.03304 30.0707 4.63542C28.6522 4.28565 27.1559 4.0719 25.6111 3.99418ZM22.4826 2.00243C23.2405 2.08988 24.0372 2.21618 24.8727 2.4105C24.3578 2.69226 23.8137 3.03231 23.2696 3.45009C23.017 2.906 22.7547 2.42021 22.4826 2.00243ZM20.4617 2.73112C19.6165 2.4105 18.7906 2.15789 17.9648 1.983C18.6255 1.90528 19.2861 1.86641 19.9662 1.86641C20.2869 1.86641 20.6755 2.24533 21.0738 2.98373C20.8795 2.906 20.6658 2.81856 20.4617 2.73112ZM0.000244141 20.0058C0.000244141 21.9101 0.272286 23.7464 0.767793 25.4856C0.79694 25.6021 0.826088 25.7187 0.864951 25.8353C0.874667 25.8548 0.884381 25.8742 0.894097 25.9033C3.42021 34.0549 11.0277 40.001 20.0051 40.001C24.1538 40.001 28.0109 38.7282 31.2171 36.5519C31.2463 36.5324 31.2852 36.513 31.3143 36.4936C31.5086 36.3673 31.6835 36.2312 31.8681 36.0855C35.5504 33.3651 38.2611 29.4205 39.4076 24.854C39.4756 24.6403 39.5242 24.4265 39.5727 24.2128C39.5825 24.1642 39.5825 24.1156 39.5922 24.0573C39.8642 22.7457 40.01 21.3855 40.01 19.9961C40.01 17.2951 39.4853 14.6816 38.436 12.2138C38.232 11.7377 37.6879 11.5239 37.2215 11.7182C36.7454 11.9126 36.522 12.4664 36.726 12.9327C37.6684 15.1674 38.1542 17.538 38.1542 19.9864C38.1542 21.4826 37.9696 22.9497 37.6199 24.3391C37.3478 25.2232 36.862 26.0394 36.1916 26.7778C36.2111 26.4571 36.2208 26.1462 36.2208 25.8159C36.2305 22.2502 35.2395 18.4804 33.4129 14.9342C34.7537 13.7877 35.6087 12.3595 35.9002 10.7661C35.9973 10.2609 35.6573 9.77508 35.1521 9.68764C34.6468 9.59048 34.161 9.93054 34.0639 10.4358C33.8696 11.4851 33.3255 12.4566 32.4705 13.2728C32.2082 12.8356 31.9264 12.3984 31.6349 11.9709C30.0027 9.58077 28.0595 7.50158 25.9415 5.85961C28.7396 6.04421 31.3337 6.72432 33.4129 7.89021C33.7433 8.07481 34.1708 8.07482 34.4817 7.81249C34.88 7.48215 34.9286 6.8992 34.5983 6.50085C31.6058 2.30362 26.4175 0.000976562 20.0051 0.000976562C8.96794 0.0106924 0.000244141 8.97839 0.000244141 20.0058Z" fill="white"/>
</mask>
<g mask="url(#mask0_2051_46647)">
<path d="M39.9904 0.0102539H0.00012207V40.0005H39.9904V0.0102539Z" fill="#15353F"/>
</g>
</svg>
