<svg width="300" height="54" viewBox="0 0 300 54" fill="none" xmlns="http://www.w3.org/2000/svg">
<g clip-path="url(#clip0_2096_82722)">
<path d="M145.69 7.63961H148.48V18.2596H145.69V7.63961ZM150.27 18.2596H152.97V14.9196C152.97 13.2196 153.54 12.4396 154.65 12.4396C155.38 12.4396 155.89 12.9496 155.89 14.4296V18.2596H158.59V13.3096C158.59 11.6696 157.74 10.1496 155.61 10.1496C154.38 10.1496 153.3 10.6496 152.76 11.7996H152.73V10.3396H150.27M159.42 12.2496H160.96V15.4796C160.96 17.3596 161.54 18.4396 163.96 18.4396C164.64 18.4396 165.15 18.3496 165.65 18.2896L165.56 16.5096C165.29 16.5496 165.01 16.6096 164.73 16.6096C163.88 16.6096 163.65 16.1296 163.65 15.1696V12.2496H165.54V10.3396H163.65V7.71961L161 8.55961V10.3396H159.41M174.37 15.0996V14.5996C174.37 12.2396 173.31 10.1496 170.42 10.1496C168 10.1496 166.24 11.6696 166.24 14.2896C166.24 16.9096 168.2 18.4396 170.77 18.4396C171.78 18.4396 172.77 18.2896 173.64 17.9396V16.0096C172.83 16.4496 171.99 16.6096 171.26 16.6096C169.94 16.6096 169.12 16.1896 168.97 15.0896M168.94 13.5496C169 12.6396 169.47 11.8896 170.44 11.8896C171.52 11.8896 171.94 12.6396 171.94 13.5496H168.94ZM181.33 10.2496C181.06 10.2096 180.73 10.1596 180.41 10.1596C179.24 10.1596 178.57 10.7896 178.11 11.7996H178.07V10.3396H175.61V18.2596H178.31V14.9196C178.31 13.3696 179.01 12.4396 180.27 12.4396C180.59 12.4396 180.88 12.4396 181.18 12.5296M182.39 18.2596H185.09V14.9196C185.09 13.2196 185.66 12.4396 186.77 12.4396C187.5 12.4396 188.02 12.9496 188.02 14.4296V18.2596H190.71V13.3096C190.71 11.6696 189.86 10.1496 187.73 10.1496C186.5 10.1496 185.42 10.6496 184.89 11.7996H184.86V10.3396H182.4M199.81 18.2596C199.69 17.6296 199.66 17.0096 199.66 16.3896V13.4396C199.66 11.0196 197.94 10.1496 195.95 10.1496C194.8 10.1496 193.79 10.3196 192.83 10.7096L192.87 12.5696C193.62 12.1496 194.48 11.9796 195.36 11.9796C196.33 11.9796 197.13 12.2696 197.15 13.3496C196.8 13.2896 196.32 13.2496 195.89 13.2496C194.45 13.2496 191.86 13.5396 191.86 15.9596C191.86 17.6796 193.24 18.4596 194.78 18.4596C195.89 18.4596 196.64 18.0196 197.26 17.0296H197.28C197.28 17.4396 197.33 17.8496 197.34 18.2796M195.48 16.6196C194.85 16.6196 194.38 16.2996 194.38 15.7496C194.38 14.9896 195.1 14.6996 196.02 14.6996C196.42 14.6996 196.81 14.7296 197.16 14.7396C197.15 15.6796 196.51 16.6196 195.48 16.6196ZM200.56 12.2496H202.09V15.4796C202.09 17.3596 202.67 18.4396 205.09 18.4396C205.77 18.4396 206.28 18.3496 206.78 18.2896L206.69 16.5096C206.42 16.5496 206.14 16.6096 205.86 16.6096C205.01 16.6096 204.78 16.1296 204.78 15.1696V12.2496H206.67V10.3396H204.78V7.71961L202.13 8.55961V10.3396H200.55M210.76 7.03961H208.06V9.04961H210.76M208.06 18.2596H210.76V10.3396H208.06V18.2596ZM212.22 14.3096C212.22 16.9296 214.18 18.4496 216.76 18.4496C219.34 18.4496 221.3 16.9296 221.3 14.3096C221.3 11.6796 219.34 10.1596 216.76 10.1596C214.18 10.1496 212.22 11.6696 212.22 14.3096ZM218.52 14.3096C218.52 15.4796 218.01 16.5296 216.76 16.5296C215.52 16.5296 215.01 15.4796 215.01 14.3096C215.01 13.1196 215.52 12.0696 216.76 12.0696C218.01 12.0696 218.52 13.1196 218.52 14.3096ZM222.45 18.2596H225.15V14.9196C225.15 13.2196 225.72 12.4396 226.83 12.4396C227.56 12.4396 228.07 12.9496 228.07 14.4296V18.2596H230.77V13.3096C230.77 11.6696 229.92 10.1496 227.79 10.1496C226.56 10.1496 225.48 10.6496 224.94 11.7996H224.91V10.3396H222.45M239.88 18.2596C239.76 17.6296 239.73 17.0096 239.73 16.3896V13.4396C239.73 11.0196 238 10.1496 236.01 10.1496C234.86 10.1496 233.85 10.3196 232.89 10.7096L232.93 12.5696C233.68 12.1496 234.55 11.9796 235.42 11.9796C236.39 11.9796 237.19 12.2696 237.2 13.3496C236.86 13.2896 236.38 13.2496 235.95 13.2496C234.51 13.2496 231.92 13.5396 231.92 15.9596C231.92 17.6796 233.3 18.4596 234.84 18.4596C235.95 18.4596 236.7 18.0196 237.31 17.0296H237.34C237.34 17.4396 237.39 17.8496 237.4 18.2796M235.55 16.6196C234.92 16.6196 234.44 16.2996 234.44 15.7496C234.44 14.9896 235.16 14.6996 236.07 14.6996C236.47 14.6996 236.87 14.7296 237.21 14.7396C237.21 15.6796 236.57 16.6196 235.55 16.6196ZM241.62 18.2596H244.32V6.84961H241.62V18.2596ZM145.7 32.6796H148.49V28.3996H152.52V26.3996H148.49V24.0696H152.7V22.0596H145.71M156.83 21.4596H154.13V23.4696H156.83M154.14 32.6796H156.84V24.7596H154.14V32.6796ZM158.68 32.6796H161.38V29.3296C161.38 27.6296 161.95 26.8496 163.05 26.8496C163.79 26.8496 164.29 27.3596 164.29 28.8396V32.6696H166.99V27.7296C166.99 26.0796 166.14 24.5596 164 24.5596C162.77 24.5596 161.7 25.0596 161.16 26.2096H161.13V24.7496H158.67M176.11 32.6796C175.98 32.0596 175.96 31.4296 175.96 30.8096V27.8596C175.96 25.4396 174.23 24.5696 172.24 24.5696C171.09 24.5696 170.08 24.7396 169.13 25.1296L169.17 26.9896C169.92 26.5696 170.79 26.3996 171.66 26.3996C172.63 26.3996 173.43 26.6896 173.44 27.7696C173.09 27.7096 172.61 27.6596 172.18 27.6596C170.74 27.6596 168.15 27.9496 168.15 30.3696C168.15 32.0896 169.53 32.8696 171.07 32.8696C172.18 32.8696 172.93 32.4296 173.54 31.4396H173.57C173.57 31.8496 173.61 32.2596 173.63 32.6896M171.78 31.0396C171.15 31.0396 170.67 30.7196 170.67 30.1696C170.67 29.4096 171.39 29.1296 172.3 29.1296C172.7 29.1296 173.09 29.1496 173.44 29.1696C173.44 30.0996 172.79 31.0396 171.78 31.0396ZM177.53 32.6796H180.23V29.3296C180.23 27.6296 180.8 26.8496 181.9 26.8496C182.64 26.8496 183.15 27.3596 183.15 28.8396V32.6696H185.85V27.7296C185.85 26.0796 185 24.5596 182.87 24.5596C181.64 24.5596 180.56 25.0596 180.03 26.2096H180V24.7496H177.54M193.68 25.0196C193.07 24.7196 192.35 24.5796 191.54 24.5796C188.96 24.5796 187 26.0996 187 28.7296C187 31.3396 188.97 32.8696 191.54 32.8696C192.26 32.8696 193.07 32.7396 193.74 32.5196L193.68 30.4796C193.23 30.7296 192.62 30.8596 192 30.8596C190.83 30.8596 189.78 30.0396 189.78 28.7796C189.78 27.4096 190.67 26.5896 191.85 26.5896C192.49 26.5896 192.99 26.7296 193.48 27.0296M202.46 29.5196V29.0196C202.46 26.6496 201.41 24.5696 198.52 24.5696C196.09 24.5696 194.34 26.0896 194.34 28.7096C194.34 31.3196 196.31 32.8596 198.88 32.8596C199.88 32.8596 200.87 32.6996 201.74 32.3596V30.4296C200.94 30.8696 200.09 31.0396 199.36 31.0396C198.04 31.0396 197.22 30.6096 197.07 29.5196M197.04 27.9696C197.1 27.0596 197.56 26.3096 198.53 26.3096C199.61 26.3096 200.03 27.0596 200.03 27.9696H197.04ZM216.87 30.2096C216.11 30.5196 215.18 30.7596 214.26 30.7596C212.23 30.7596 210.77 29.4996 210.77 27.4196C210.77 25.4396 212.06 23.9896 214.04 23.9896C215 23.9896 215.86 24.2296 216.77 24.7296L216.99 22.4396C215.99 22.1396 214.96 21.8896 213.89 21.8896C210.44 21.8896 207.9 23.7296 207.9 27.4296C207.9 31.4496 211.12 32.8796 213.91 32.8796C215.33 32.8796 216.22 32.6496 217.01 32.4496M217.62 28.7196C217.62 31.3396 219.58 32.8596 222.16 32.8596C224.74 32.8596 226.7 31.3396 226.7 28.7196C226.7 26.0896 224.74 24.5696 222.16 24.5696C219.58 24.5696 217.62 26.0896 217.62 28.7196ZM223.91 28.7196C223.91 29.8996 223.4 30.9396 222.16 30.9396C220.92 30.9396 220.41 29.8896 220.41 28.7196C220.41 27.5296 220.92 26.4896 222.16 26.4896C223.41 26.4896 223.91 27.5396 223.91 28.7196ZM233.56 24.6596C233.29 24.6196 232.96 24.5696 232.64 24.5696C231.47 24.5696 230.8 25.2096 230.34 26.2196H230.31V24.7596H227.85V32.6796H230.55V29.3396C230.55 27.7896 231.26 26.8596 232.51 26.8596C232.82 26.8596 233.13 26.8596 233.43 26.9496M234.43 35.8696H237.13V31.5596H237.16C237.67 32.4996 238.68 32.8596 239.63 32.8596C241.96 32.8596 243.2 30.9096 243.2 28.5696C243.2 26.6496 242.01 24.5696 239.86 24.5696C238.63 24.5696 237.49 25.0696 236.95 26.1796H236.92V24.7496H234.43M238.78 26.6696C239.83 26.6696 240.41 27.5796 240.41 28.6296C240.41 29.8996 239.79 30.7596 238.78 30.7596C237.88 30.7596 237.13 29.8896 237.13 28.7396C237.13 27.5596 237.79 26.6696 238.78 26.6696ZM243.97 28.7196C243.97 31.3396 245.94 32.8596 248.51 32.8596C251.09 32.8596 253.05 31.3396 253.05 28.7196C253.05 26.0896 251.09 24.5696 248.51 24.5696C245.95 24.5696 243.97 26.0896 243.97 28.7196ZM250.27 28.7196C250.27 29.8996 249.76 30.9396 248.52 30.9396C247.28 30.9396 246.77 29.8896 246.77 28.7196C246.77 27.5296 247.28 26.4896 248.52 26.4896C249.76 26.4896 250.27 27.5396 250.27 28.7196ZM259.92 24.6596C259.65 24.6196 259.32 24.5696 259 24.5696C257.84 24.5696 257.16 25.2096 256.69 26.2196H256.66V24.7596H254.2V32.6796H256.9V29.3396C256.9 27.7896 257.6 26.8596 258.86 26.8596C259.18 26.8596 259.48 26.8596 259.78 26.9496M268.3 32.6796C268.18 32.0596 268.15 31.4296 268.15 30.8096V27.8596C268.15 25.4396 266.42 24.5696 264.43 24.5696C263.27 24.5696 262.27 24.7396 261.31 25.1296L261.35 26.9896C262.1 26.5696 262.97 26.3996 263.84 26.3996C264.81 26.3996 265.61 26.6896 265.62 27.7696C265.28 27.7096 264.8 27.6596 264.36 27.6596C262.92 27.6596 260.33 27.9496 260.33 30.3696C260.33 32.0896 261.71 32.8696 263.25 32.8696C264.36 32.8696 265.11 32.4296 265.72 31.4396H265.75C265.75 31.8496 265.79 32.2596 265.81 32.6896M263.97 31.0396C263.34 31.0396 262.86 30.7196 262.86 30.1696C262.86 29.4096 263.58 29.1296 264.49 29.1296C264.89 29.1296 265.29 29.1496 265.63 29.1696C265.63 30.0996 264.99 31.0396 263.97 31.0396ZM269.03 26.6696H270.57V29.8896C270.57 31.7796 271.16 32.8596 273.57 32.8596C274.25 32.8596 274.75 32.7696 275.26 32.6996L275.17 30.9196C274.9 30.9696 274.62 31.0296 274.35 31.0296C273.49 31.0296 273.27 30.5396 273.27 29.5796V26.6596H275.16V24.7496H273.27V22.1296L270.62 22.9696V24.7496H269.03M279.23 21.4596H276.53V23.4696H279.23M276.53 32.6796H279.23V24.7596H276.53V32.6796ZM280.7 28.7196C280.7 31.3396 282.66 32.8596 285.24 32.8596C287.82 32.8596 289.78 31.3396 289.78 28.7196C289.78 26.0896 287.82 24.5696 285.24 24.5696C282.66 24.5696 280.7 26.0896 280.7 28.7196ZM286.99 28.7196C286.99 29.8996 286.48 30.9396 285.24 30.9396C284 30.9396 283.49 29.8896 283.49 28.7196C283.49 27.5296 284 26.4896 285.24 26.4896C286.48 26.4896 286.99 27.5396 286.99 28.7196ZM290.93 32.6796H293.63V29.3296C293.63 27.6296 294.2 26.8496 295.31 26.8496C296.04 26.8496 296.55 27.3596 296.55 28.8396V32.6696H299.25V27.7296C299.25 26.0796 298.4 24.5596 296.27 24.5596C295.04 24.5596 293.96 25.0596 293.42 26.2096H293.39V24.7496H290.93" fill="#009FDA"/>
<path d="M236.55 39.7199C238.29 39.7199 239.25 40.5699 239.25 42.1299C239.25 43.5999 238.3 44.4699 236.72 44.4699H235.61V46.7099H234.14V39.7199M235.62 43.2499H236.49C237.34 43.2499 237.77 42.8699 237.77 42.1299C237.77 41.3699 237.3 40.9499 236.44 40.9499H235.61V43.2499H235.62ZM231.45 43.9099C231.45 44.9299 231.06 45.4399 230.26 45.4399C229.46 45.4399 229.04 44.9199 229.04 43.9099V39.7199H227.58V43.8099C227.57 44.8099 227.82 45.5699 228.31 46.0699C228.76 46.5299 229.42 46.7599 230.26 46.7599C231.47 46.7599 232.91 46.2499 232.91 43.7999V39.7099H231.44V43.9099H231.45ZM223.58 39.6599C225.07 39.6599 226.66 40.5999 226.66 43.2199C226.66 45.8299 225.07 46.7599 223.58 46.7599C222.09 46.7599 220.49 45.8299 220.49 43.2199C220.5 40.5999 222.09 39.6599 223.58 39.6599ZM223.58 45.4699C224.16 45.4699 225.14 45.1699 225.14 43.2299C225.14 41.2799 224.16 40.9899 223.58 40.9899C222.56 40.9899 222.01 41.7899 222.01 43.2299C222.01 44.6799 222.57 45.4699 223.58 45.4699ZM218.98 44.5899C219.22 45.0899 219.43 45.5199 219.91 45.5199H220.26V46.6699L220.21 46.6799C220.2 46.6799 219.95 46.7499 219.5 46.7499C218.34 46.7499 217.98 45.9499 217.67 45.2299C217.42 44.6399 217.19 44.1399 216.59 44.1399H215.95V46.7099H214.48V39.7199H216.92C218.7 39.7199 219.54 40.4299 219.54 41.9499C219.54 42.8799 218.99 43.4699 218.43 43.7099C218.67 43.9499 218.82 44.2799 218.98 44.5899ZM215.95 42.9899H216.76C217.58 42.9899 218.08 42.6099 218.08 41.9799C218.08 41.3299 217.64 40.9499 216.86 40.9499H215.94V42.9899H215.95ZM210.57 44.1599H212.09V44.2399C212.09 44.6899 211.93 45.4499 210.87 45.4499C209.88 45.4499 209.28 44.6199 209.28 43.2299C209.28 41.7999 209.85 40.9899 210.85 40.9899C212.03 40.9899 212.08 42.1999 212.08 42.2599V42.3399L213.44 42.1299V42.0699C213.44 41.5599 213 39.6799 210.83 39.6799C208.89 39.6799 207.77 40.9799 207.77 43.2399C207.77 45.4599 208.92 46.7799 210.85 46.7799C212.79 46.7799 213.47 45.4099 213.47 44.2399V43.0299H210.58V44.1599H210.57ZM206.18 39.7199H204.44L202.15 42.8699V39.7199H200.66V46.7099H202.15V43.4899L204.49 46.7099H206.25L203.58 43.1799L206.18 39.7199ZM197.89 44.0399L195.48 39.7199H193.99V46.7099H195.46V42.5399L197.86 46.7099H199.36V39.7199H197.89V44.0399ZM191.09 39.7699L193.6 46.7099H192.07L191.48 44.9999H189.19L188.62 46.7099H187.08L189.61 39.7199H191.06L191.09 39.7699ZM190.34 41.6299L189.59 43.8299H191.1L190.34 41.6299ZM185.72 43.0199C186.25 43.1799 186.94 43.6699 186.94 44.7199C186.94 45.9799 186.06 46.7099 184.52 46.7099H181.62V39.7199H184.24C185.73 39.7199 186.49 40.3499 186.49 41.5999C186.49 42.5599 186.06 42.9099 185.72 43.0199ZM184.09 42.5799C184.7 42.5799 184.98 42.3199 184.98 41.7599C184.98 41.2299 184.61 40.9599 183.9 40.9599H183.08V42.5799H184.09ZM183.09 45.4799H184.24C184.99 45.4799 185.34 45.1899 185.34 44.5799C185.34 43.8299 184.73 43.6699 184.21 43.6699H183.1V45.4799H183.09ZM175.58 39.7199C177.73 39.7199 179 41.0699 179 43.3299C179 45.4799 177.86 46.7099 175.87 46.7099H173.54V39.7199H175.58ZM175 45.4799H175.86C176.92 45.4799 177.55 44.6799 177.55 43.3199C177.55 41.7499 176.88 40.9599 175.56 40.9599H175V45.4799ZM169.87 39.7199H168.4V46.7099H172.85V45.4699H169.87V39.7199ZM166.42 44.5899C166.66 45.0899 166.88 45.5199 167.36 45.5199H167.7V46.6699L167.66 46.6799C167.65 46.6799 167.39 46.7499 166.94 46.7499C165.78 46.7499 165.43 45.9499 165.11 45.2299C164.86 44.6399 164.64 44.1399 164.03 44.1399H163.39V46.7099H161.92V39.7199H164.36C166.14 39.7199 166.98 40.4299 166.98 41.9499C166.98 42.8799 166.43 43.4699 165.88 43.7099C166.11 43.9499 166.27 44.2799 166.42 44.5899ZM163.39 42.9899H164.21C165.02 42.9899 165.53 42.6099 165.53 41.9799C165.53 41.3299 165.09 40.9499 164.32 40.9499H163.39V42.9899ZM158.01 39.6599C159.5 39.6599 161.09 40.5999 161.09 43.2199C161.09 45.8299 159.5 46.7599 158.01 46.7599C156.52 46.7599 154.93 45.8299 154.93 43.2199C154.93 40.5999 156.52 39.6599 158.01 39.6599ZM158.01 45.4699C158.6 45.4699 159.57 45.1699 159.57 43.2299C159.57 41.2799 158.6 40.9899 158.01 40.9899C157 40.9899 156.44 41.7899 156.44 43.2299C156.44 44.6799 157 45.4699 158.01 45.4699ZM153.06 39.7199H154.72L152.74 46.7099H151.08L149.88 42.3199L148.66 46.7099H147.01L145.03 39.7199H146.74L147.9 44.8199L149.29 39.7199H150.52L151.86 44.8199L153.06 39.7199ZM60.02 44.5499H70.84V9.57988H60.02V44.5499ZM74.52 44.5499H85.32V32.0599H97.15V23.6399H85.32V17.9699H98.62V9.56988H74.52M124.72 34.3899C122.75 35.2399 120.85 35.7399 118.88 35.7399C114.41 35.7399 111.19 32.6899 111.19 26.6799C111.19 20.9699 114.66 17.9199 119.25 17.9199C121.06 17.9199 122.88 18.5199 124.65 19.2199V9.99988C121.75 9.34988 119.98 8.89988 116.99 8.89988C107.97 8.89988 100.15 14.7599 100.15 26.4699C100.15 38.9399 107.64 45.0499 116.99 45.0499C119.73 45.0499 122.71 44.3499 124.73 43.6499M135.88 47.3399C136.14 47.3399 136.35 47.1299 136.35 46.8599V7.59988C136.35 7.33988 136.14 7.12988 135.88 7.12988C135.62 7.12988 135.41 7.33988 135.41 7.59988V46.8599C135.41 47.1299 135.62 47.3399 135.88 47.3399Z" fill="#002244"/>
<path d="M33 43.97C36.46 43.93 39.74 43.42 42.64 42.43C43.37 42.18 44.07 41.9 44.73 41.6C43.92 43.6 42.74 45.27 41.19 46.51C38.14 48.8 34.54 50.36 30.63 50.95C31.61 49.24 32.39 46.82 33 43.97ZM16.73 48.84C16.66 48.78 16.58 48.72 16.5 48.68C15.14 48.01 14.59 44.93 15.3 40.23C17.91 41.42 20.76 42.37 23.75 43.02C26.02 43.51 28.27 43.82 30.48 43.93C29.4 48.71 28.01 51.21 27.09 51.21C27.03 51.21 26.98 51.22 26.92 51.23C23.27 51.2 19.82 50.35 16.73 48.84ZM4.11 33.63C3.9 32.82 3.77 32 3.72 31.17C4.54 32.35 5.54 33.5 6.72 34.61C8.51 36.29 10.64 37.79 13.01 39.08C12.53 41.83 12.39 44.32 12.7 46.32C8.61 43.19 5.55 38.75 4.11 33.63ZM34.54 26.96C34.54 25.99 34.52 25.01 34.5 24.04C37.55 23.83 40.37 23.03 42.67 21.69C44.81 25.98 45.96 30.5 45.94 34.78C45.94 36.02 45.84 37.2 45.64 38.31C44.54 39 43.27 39.59 41.85 40.08C39.32 40.94 36.47 41.41 33.46 41.49C34.19 37.07 34.54 31.94 34.54 26.96ZM24.26 40.58C21.23 39.92 18.36 38.94 15.77 37.7C16.62 33.81 18.21 29.1 20.72 23.86C21.08 23.1 21.46 22.36 21.84 21.63C23.6 22.43 25.51 23.07 27.52 23.5C29.04 23.84 30.57 24.01 32.06 24.06C32.09 24.99 32.1 25.96 32.1 26.94C32.1 32.79 31.64 37.65 30.98 41.44C28.78 41.36 26.52 41.07 24.26 40.58ZM8.38 32.79C6.3 30.84 4.87 28.77 4.14 26.72C4.72 24.42 5.83 22.11 7.48 19.9C9.04 17.81 10.98 15.92 13.2 14.3C13.84 15.48 14.74 16.63 15.88 17.72C16.97 18.75 18.24 19.69 19.64 20.51C19.25 21.26 18.88 22.01 18.5 22.79C16.33 27.31 14.55 32.15 13.51 36.55C11.6 35.44 9.86 34.18 8.38 32.79ZM32.88 9.70004C35.66 11.8 38.21 14.51 40.34 17.69C40.75 18.29 41.13 18.91 41.49 19.52C39.54 20.67 37.06 21.36 34.4 21.55C34.17 17.26 33.67 13.13 32.88 9.70004ZM28.03 21.08C26.26 20.7 24.57 20.15 23.02 19.45C25.31 15.39 27.8 11.87 30.27 9.25004C31.04 12.33 31.68 16.46 31.96 21.59C30.66 21.53 29.34 21.37 28.03 21.08ZM17.57 15.9C16.56 14.94 15.79 13.93 15.27 12.93C17.56 11.53 20.1 10.39 22.81 9.57004C24.42 9.08004 26.04 8.71004 27.67 8.46004C25.33 11.13 22.98 14.51 20.84 18.34C19.61 17.62 18.51 16.8 17.57 15.9ZM12.3 7.99004C12.27 8.12004 12.23 8.24004 12.21 8.37004C11.96 9.54004 11.99 10.74 12.28 11.93C9.65 13.77 7.36 15.95 5.53 18.4C4.97 19.15 4.47 19.91 4.03 20.68C5.38 15.59 8.33 11.17 12.3 7.99004ZM14.6 8.89004C14.87 7.60004 15.63 6.44004 16.81 5.50004C19.67 4.63004 22.99 4.84004 26.49 6.14004C25.02 6.40004 23.55 6.74004 22.1 7.19004C19.4 8.01004 16.85 9.14004 14.52 10.5C14.46 9.96004 14.49 9.41004 14.6 8.89004ZM34.46 5.62004C35.3 5.07004 36.07 4.69004 36.72 4.53004C37.95 5.03004 39.17 5.66004 40.32 6.47004C38.47 6.01004 36.49 5.72004 34.46 5.62004ZM30.33 2.96004C31.32 3.07004 32.38 3.25004 33.47 3.50004C32.79 3.87004 32.08 4.34004 31.36 4.90004C31.05 4.16004 30.7 3.51004 30.33 2.96004ZM27.68 3.93004C26.57 3.50004 25.48 3.17004 24.4 2.93004C25.26 2.83004 26.14 2.77004 27.03 2.77004C27.45 2.77004 27.96 3.28004 28.5 4.27004C28.23 4.16004 27.95 4.03004 27.68 3.93004ZM0.75 27C0.75 29.54 1.11 31.99 1.76 34.32C1.8 34.48 1.84 34.63 1.88 34.79C1.89 34.82 1.9 34.85 1.91 34.88C5.23 45.77 15.25 53.71 27.06 53.71C32.52 53.71 37.6 52.01 41.81 49.11C41.85 49.08 41.89 49.06 41.94 49.03C42.19 48.86 42.43 48.68 42.66 48.49C47.51 44.85 51.08 39.58 52.58 33.48C52.67 33.2 52.74 32.92 52.8 32.63C52.81 32.56 52.82 32.5 52.82 32.43C53.18 30.67 53.37 28.86 53.37 27C53.37 23.4 52.67 19.89 51.3 16.6C51.04 15.97 50.32 15.67 49.69 15.94C49.07 16.21 48.78 16.94 49.04 17.57C50.28 20.55 50.91 23.73 50.91 27C50.91 29 50.66 30.95 50.21 32.81C49.85 33.99 49.21 35.08 48.34 36.06C48.36 35.64 48.38 35.21 48.38 34.78C48.39 30.01 47.1 24.98 44.69 20.25C46.45 18.71 47.58 16.81 47.97 14.68C48.1 14 47.65 13.36 46.99 13.24C46.32 13.11 45.68 13.56 45.56 14.24C45.3 15.64 44.58 16.93 43.46 18.03C43.11 17.44 42.74 16.86 42.36 16.29C40.21 13.09 37.66 10.32 34.87 8.12004C38.56 8.37004 41.96 9.27004 44.71 10.83C45.13 11.08 45.71 11.07 46.11 10.73C46.63 10.29 46.7 9.50004 46.27 8.98004C42.33 3.38004 35.5 0.290039 27.06 0.290039C12.56 0.290039 0.75 12.27 0.75 27Z" fill="url(#paint0_radial_2096_82722)"/>
</g>
<defs>
<radialGradient id="paint0_radial_2096_82722" cx="0" cy="0" r="1" gradientUnits="userSpaceOnUse" gradientTransform="translate(50.8713 10.3659) scale(44.268 44.268)">
<stop stop-color="white"/>
<stop offset="0.0598" stop-color="#EBF7FC"/>
<stop offset="0.1829" stop-color="#B6E3F4"/>
<stop offset="0.3589" stop-color="#60C3E8"/>
<stop offset="0.544" stop-color="#009FDA"/>
<stop offset="1" stop-color="#002244"/>
</radialGradient>
<clipPath id="clip0_2096_82722">
<rect width="300" height="54" fill="white"/>
</clipPath>
</defs>
</svg>
