<?xml version="1.0" encoding="utf-8"?>
<svg xmlns="http://www.w3.org/2000/svg" width="300px" height="48px">
<path fill="#00ADE4" d="M168.66,16.01V9.37l-2.26,6.64h-0.81l-2.25-6.64v6.64h-2.04V5.71h2.74l1.96,5.74l1.98-5.74h2.72v10.3H168.66
	z M178.35,16.01V8.55h-1.82v5.1c-0.13,0.24-0.31,0.45-0.54,0.63c-0.23,0.19-0.49,0.28-0.78,0.28c-0.31,0-0.54-0.08-0.71-0.25
	c-0.17-0.17-0.26-0.44-0.26-0.84V8.55h-1.82v5.64c0,0.63,0.16,1.12,0.47,1.47c0.32,0.35,0.81,0.53,1.49,0.53
	c0.49,0,0.92-0.11,1.29-0.34c0.38-0.23,0.66-0.49,0.87-0.79v0.94H178.35z M179.99,16.01h1.82V5.71h-1.82V16.01z M185.65,16.19
	c0.34,0,0.62-0.04,0.85-0.12c0.23-0.08,0.42-0.19,0.56-0.31l-0.38-1.42c-0.05,0.06-0.13,0.11-0.23,0.16
	c-0.1,0.04-0.21,0.06-0.32,0.06c-0.17,0-0.3-0.07-0.39-0.21c-0.09-0.14-0.14-0.33-0.14-0.56v-3.6h1.21V8.55h-1.21V6.51h-1.83v2.04
	h-0.96v1.64h0.96v4.04c0,0.66,0.15,1.15,0.45,1.48C184.54,16.03,185.01,16.19,185.65,16.19 M188.91,7.72c0.3,0,0.56-0.11,0.78-0.32
	C189.9,7.18,190,6.91,190,6.6c0-0.31-0.11-0.57-0.32-0.8c-0.21-0.22-0.47-0.33-0.78-0.33c-0.29,0-0.55,0.11-0.77,0.33
	c-0.22,0.22-0.33,0.49-0.33,0.8c0,0.31,0.11,0.57,0.33,0.79C188.35,7.61,188.61,7.72,188.91,7.72 M187.99,16.01h1.83V8.55h-1.83
	V16.01z M191.46,16.01h1.83V5.71h-1.83V16.01z M200.56,16.01V11c0-0.47-0.07-0.88-0.22-1.22c-0.15-0.34-0.35-0.61-0.61-0.82
	c-0.25-0.21-0.56-0.36-0.91-0.46c-0.35-0.1-0.72-0.14-1.12-0.14c-0.47,0-0.97,0.09-1.48,0.25c-0.51,0.17-0.96,0.44-1.34,0.83
	l0.69,1.26c0.27-0.27,0.57-0.47,0.87-0.6c0.3-0.13,0.62-0.2,0.94-0.2c0.43,0,0.77,0.11,1.01,0.35c0.23,0.23,0.35,0.55,0.35,0.95
	v0.97c-0.2-0.29-0.48-0.51-0.83-0.66c-0.35-0.15-0.72-0.22-1.1-0.22c-0.3,0-0.58,0.05-0.85,0.14c-0.27,0.1-0.51,0.25-0.72,0.45
	c-0.21,0.2-0.38,0.45-0.51,0.76c-0.13,0.3-0.19,0.66-0.19,1.07c0,0.4,0.06,0.76,0.19,1.06c0.13,0.3,0.3,0.56,0.51,0.77
	c0.22,0.21,0.45,0.37,0.72,0.48c0.27,0.11,0.55,0.16,0.85,0.16c0.37,0,0.74-0.08,1.09-0.24c0.36-0.16,0.63-0.39,0.84-0.69v0.74
	H200.56z M197.5,14.94c-0.35,0-0.62-0.11-0.83-0.32c-0.21-0.22-0.31-0.51-0.31-0.87c0-0.36,0.1-0.65,0.31-0.87
	c0.21-0.22,0.48-0.33,0.83-0.33c0.25,0,0.49,0.06,0.71,0.19c0.22,0.13,0.39,0.31,0.52,0.53v0.96c-0.12,0.23-0.29,0.4-0.52,0.53
	C197.99,14.88,197.76,14.94,197.5,14.94 M204.41,16.19c0.34,0,0.62-0.04,0.85-0.12c0.23-0.08,0.42-0.19,0.56-0.31l-0.38-1.42
	c-0.05,0.06-0.13,0.11-0.23,0.16c-0.1,0.04-0.21,0.06-0.32,0.06c-0.17,0-0.31-0.07-0.4-0.21c-0.1-0.14-0.14-0.33-0.14-0.56v-3.6
	h1.22V8.55h-1.22V6.51h-1.82v2.04h-0.96v1.64h0.96v4.04c0,0.66,0.15,1.15,0.45,1.48C203.3,16.03,203.77,16.19,204.41,16.19
	 M209.78,16.19c0.49,0,0.98-0.1,1.45-0.29c0.46-0.19,0.86-0.46,1.19-0.83l-0.83-1.11c-0.21,0.24-0.46,0.42-0.76,0.54
	c-0.3,0.12-0.58,0.18-0.84,0.18c-0.56,0-0.99-0.17-1.28-0.52c-0.29-0.35-0.46-0.78-0.5-1.29h4.62v-0.53c0-0.57-0.07-1.11-0.21-1.6
	c-0.14-0.49-0.35-0.91-0.62-1.27c-0.27-0.35-0.6-0.63-0.99-0.83c-0.39-0.2-0.84-0.29-1.35-0.29c-0.51,0-0.96,0.11-1.37,0.31
	c-0.41,0.21-0.75,0.48-1.03,0.83c-0.29,0.35-0.5,0.76-0.65,1.24c-0.15,0.48-0.23,0.98-0.23,1.52c0,0.59,0.08,1.12,0.24,1.61
	c0.16,0.48,0.39,0.89,0.68,1.23c0.3,0.34,0.66,0.61,1.08,0.8C208.79,16.1,209.26,16.19,209.78,16.19 M208.2,11.61
	c0.01-0.2,0.04-0.4,0.09-0.6c0.05-0.21,0.13-0.39,0.25-0.56c0.11-0.17,0.26-0.31,0.43-0.42c0.18-0.11,0.4-0.16,0.65-0.16
	c0.27,0,0.49,0.05,0.67,0.16c0.18,0.11,0.33,0.25,0.44,0.42c0.11,0.17,0.19,0.36,0.24,0.56c0.05,0.21,0.08,0.41,0.09,0.6H208.2z
	 M215.86,16.01v-4.97c0.15-0.26,0.38-0.47,0.68-0.64c0.3-0.17,0.6-0.25,0.89-0.25c0.17,0,0.32,0.01,0.44,0.05V8.36
	c-0.2,0-0.4,0.03-0.59,0.09c-0.2,0.06-0.38,0.14-0.56,0.25c-0.18,0.11-0.34,0.24-0.49,0.39c-0.15,0.15-0.27,0.31-0.37,0.47V8.55
	h-1.83v7.46H215.86z M224.54,16.01V11c0-0.47-0.07-0.88-0.22-1.22c-0.15-0.34-0.35-0.61-0.61-0.82c-0.26-0.21-0.56-0.36-0.91-0.46
	c-0.35-0.1-0.72-0.14-1.11-0.14c-0.48,0-0.97,0.09-1.48,0.25c-0.51,0.17-0.96,0.44-1.34,0.83l0.68,1.26
	c0.28-0.27,0.57-0.47,0.87-0.6c0.3-0.13,0.62-0.2,0.94-0.2c0.43,0,0.77,0.11,1.01,0.35c0.23,0.23,0.35,0.55,0.35,0.95v0.97
	c-0.2-0.29-0.48-0.51-0.83-0.66c-0.35-0.15-0.71-0.22-1.1-0.22c-0.3,0-0.58,0.05-0.85,0.14c-0.27,0.1-0.51,0.25-0.72,0.45
	c-0.21,0.2-0.38,0.45-0.51,0.76c-0.13,0.3-0.19,0.66-0.19,1.07c0,0.4,0.06,0.76,0.19,1.06c0.13,0.3,0.3,0.56,0.51,0.77
	c0.21,0.21,0.46,0.37,0.72,0.48c0.27,0.11,0.55,0.16,0.85,0.16c0.37,0,0.74-0.08,1.09-0.24c0.36-0.16,0.64-0.39,0.84-0.69v0.74
	H224.54z M221.48,14.94c-0.34,0-0.62-0.11-0.83-0.32c-0.21-0.22-0.31-0.51-0.31-0.87c0-0.36,0.1-0.65,0.31-0.87
	c0.21-0.22,0.49-0.33,0.83-0.33c0.25,0,0.49,0.06,0.71,0.19c0.22,0.13,0.4,0.31,0.52,0.53v0.96c-0.12,0.23-0.29,0.4-0.52,0.53
	C221.97,14.88,221.73,14.94,221.48,14.94 M226.19,16.01h1.83V5.71h-1.83V16.01z M232.93,16.01h2.04V5.71h-2.04V16.01z M242.64,16.01
	v-5.6c0-0.63-0.16-1.13-0.47-1.49c-0.32-0.37-0.81-0.55-1.49-0.55c-0.48,0-0.9,0.12-1.29,0.35c-0.38,0.24-0.67,0.51-0.87,0.8V8.55
	h-1.83v7.46h1.83v-5.08c0.13-0.23,0.31-0.44,0.54-0.63c0.23-0.2,0.49-0.29,0.8-0.29c0.31,0,0.54,0.08,0.71,0.26
	c0.17,0.17,0.25,0.45,0.25,0.84v4.91H242.64z M247.86,16.01l2.45-7.46h-1.95l-1.49,5.24l-1.48-5.24h-1.95l2.45,7.46H247.86z
	 M254.12,16.19c0.5,0,0.98-0.1,1.45-0.29c0.47-0.19,0.86-0.46,1.18-0.83l-0.84-1.11c-0.2,0.24-0.45,0.42-0.75,0.54
	c-0.3,0.12-0.58,0.18-0.85,0.18c-0.56,0-0.98-0.17-1.28-0.52c-0.3-0.35-0.46-0.78-0.5-1.29h4.63v-0.53c0-0.57-0.07-1.11-0.21-1.6
	c-0.14-0.49-0.35-0.91-0.62-1.27c-0.27-0.35-0.59-0.63-0.98-0.83c-0.39-0.2-0.84-0.29-1.35-0.29c-0.51,0-0.96,0.11-1.37,0.31
	c-0.4,0.21-0.75,0.48-1.03,0.83c-0.28,0.35-0.5,0.76-0.66,1.24c-0.15,0.48-0.23,0.98-0.23,1.52c0,0.59,0.08,1.12,0.25,1.61
	c0.16,0.48,0.39,0.89,0.69,1.23c0.29,0.34,0.65,0.61,1.07,0.8C253.14,16.1,253.61,16.19,254.12,16.19 M252.54,11.61
	c0.01-0.2,0.04-0.4,0.09-0.6c0.05-0.21,0.13-0.39,0.25-0.56c0.11-0.17,0.26-0.31,0.44-0.42c0.17-0.11,0.39-0.16,0.65-0.16
	c0.27,0,0.49,0.05,0.67,0.16c0.18,0.11,0.33,0.25,0.44,0.42c0.11,0.17,0.18,0.36,0.24,0.56c0.05,0.21,0.08,0.41,0.09,0.6H252.54z
	 M260.65,16.19c0.43,0,0.81-0.06,1.16-0.17c0.34-0.11,0.64-0.27,0.88-0.48c0.24-0.21,0.43-0.45,0.57-0.73
	c0.13-0.28,0.2-0.59,0.2-0.93c0-0.46-0.09-0.85-0.27-1.14c-0.18-0.3-0.41-0.54-0.68-0.73c-0.27-0.19-0.56-0.33-0.88-0.44
	c-0.31-0.11-0.61-0.21-0.87-0.3c-0.27-0.09-0.5-0.2-0.68-0.31c-0.18-0.12-0.27-0.27-0.27-0.45c0-0.21,0.09-0.38,0.27-0.51
	c0.17-0.13,0.41-0.2,0.7-0.2c0.38,0,0.72,0.08,1.04,0.23c0.32,0.15,0.57,0.33,0.75,0.54l0.73-1.25c-0.32-0.29-0.7-0.52-1.13-0.69
	c-0.42-0.18-0.9-0.26-1.43-0.26c-0.43,0-0.81,0.06-1.14,0.18c-0.34,0.12-0.62,0.28-0.85,0.49c-0.23,0.21-0.4,0.44-0.52,0.72
	c-0.12,0.27-0.18,0.56-0.18,0.86c0,0.46,0.09,0.84,0.27,1.13c0.18,0.29,0.4,0.52,0.68,0.7c0.27,0.18,0.57,0.32,0.88,0.42
	c0.31,0.11,0.6,0.21,0.87,0.3c0.28,0.09,0.5,0.2,0.68,0.32c0.18,0.12,0.27,0.28,0.27,0.49c0,0.24-0.09,0.43-0.27,0.57
	c-0.18,0.14-0.45,0.21-0.8,0.21c-0.38,0-0.75-0.09-1.12-0.27c-0.37-0.18-0.67-0.39-0.91-0.64l-0.77,1.3
	c0.32,0.33,0.71,0.59,1.2,0.78C259.51,16.1,260.05,16.19,260.65,16.19 M266.84,16.19c0.33,0,0.62-0.04,0.85-0.12
	c0.23-0.08,0.42-0.19,0.56-0.31l-0.38-1.42c-0.05,0.06-0.12,0.11-0.23,0.16c-0.1,0.04-0.21,0.06-0.32,0.06
	c-0.17,0-0.3-0.07-0.39-0.21c-0.09-0.14-0.14-0.33-0.14-0.56v-3.6h1.22V8.55h-1.22V6.51h-1.83v2.04h-0.96v1.64h0.96v4.04
	c0,0.66,0.15,1.15,0.46,1.48C265.73,16.03,266.2,16.19,266.84,16.19 M278.86,16.01v-5.67c0-0.69-0.16-1.19-0.5-1.51
	c-0.33-0.31-0.79-0.47-1.35-0.47c-0.24,0-0.46,0.04-0.68,0.11c-0.22,0.07-0.42,0.17-0.61,0.3c-0.19,0.12-0.35,0.26-0.5,0.42
	c-0.15,0.15-0.27,0.31-0.36,0.48c-0.1-0.43-0.31-0.75-0.62-0.97c-0.31-0.21-0.7-0.32-1.16-0.32c-0.23,0-0.46,0.04-0.67,0.11
	c-0.21,0.07-0.41,0.17-0.59,0.28c-0.18,0.11-0.34,0.24-0.48,0.38c-0.14,0.14-0.25,0.27-0.32,0.39V8.55h-1.82v7.46h1.82v-5.08
	c0.06-0.1,0.13-0.21,0.22-0.32c0.09-0.11,0.18-0.21,0.29-0.3c0.11-0.09,0.22-0.17,0.35-0.22c0.13-0.06,0.26-0.08,0.4-0.08
	c0.29,0,0.51,0.09,0.64,0.27c0.13,0.18,0.2,0.42,0.2,0.72v5.02h1.83v-5.08c0.06-0.1,0.13-0.21,0.21-0.32
	c0.08-0.11,0.17-0.21,0.28-0.3c0.11-0.09,0.22-0.17,0.36-0.22c0.13-0.06,0.27-0.08,0.41-0.08c0.29,0,0.5,0.09,0.64,0.26
	c0.13,0.18,0.2,0.42,0.2,0.73v5.02H278.86z M283.53,16.19c0.5,0,0.98-0.1,1.44-0.29c0.47-0.19,0.86-0.46,1.19-0.83l-0.84-1.11
	c-0.2,0.24-0.46,0.42-0.75,0.54c-0.3,0.12-0.58,0.18-0.84,0.18c-0.56,0-0.99-0.17-1.28-0.52c-0.3-0.35-0.46-0.78-0.5-1.29h4.62
	v-0.53c0-0.57-0.07-1.11-0.21-1.6c-0.14-0.49-0.35-0.91-0.62-1.27c-0.27-0.35-0.6-0.63-0.99-0.83c-0.39-0.2-0.84-0.29-1.35-0.29
	c-0.51,0-0.96,0.11-1.37,0.31c-0.41,0.21-0.75,0.48-1.04,0.83c-0.28,0.35-0.5,0.76-0.65,1.24c-0.15,0.48-0.23,0.98-0.23,1.52
	c0,0.59,0.08,1.12,0.24,1.61c0.16,0.48,0.39,0.89,0.69,1.23c0.29,0.34,0.65,0.61,1.07,0.8C282.54,16.1,283.01,16.19,283.53,16.19
	 M281.95,11.61c0.01-0.2,0.04-0.4,0.09-0.6c0.05-0.21,0.13-0.39,0.24-0.56c0.11-0.17,0.26-0.31,0.44-0.42
	c0.18-0.11,0.39-0.16,0.65-0.16c0.27,0,0.49,0.05,0.67,0.16c0.19,0.11,0.33,0.25,0.44,0.42c0.1,0.17,0.19,0.36,0.24,0.56
	c0.05,0.21,0.08,0.41,0.09,0.6H281.95z M293.74,16.01v-5.6c0-0.63-0.16-1.13-0.47-1.49c-0.32-0.37-0.81-0.55-1.49-0.55
	c-0.48,0-0.91,0.12-1.29,0.35c-0.38,0.24-0.67,0.51-0.87,0.8V8.55h-1.82v7.46h1.82v-5.08c0.13-0.23,0.31-0.44,0.54-0.63
	c0.23-0.2,0.49-0.29,0.8-0.29c0.31,0,0.54,0.08,0.71,0.26c0.17,0.17,0.25,0.45,0.25,0.84v4.91H293.74z M297.59,16.19
	c0.33,0,0.62-0.04,0.85-0.12c0.23-0.08,0.42-0.19,0.56-0.31l-0.38-1.42c-0.05,0.06-0.12,0.11-0.23,0.16
	c-0.1,0.04-0.21,0.06-0.32,0.06c-0.17,0-0.31-0.07-0.4-0.21c-0.09-0.14-0.14-0.33-0.14-0.56v-3.6h1.22V8.55h-1.22V6.51h-1.83v2.04
	h-0.96v1.64h0.96v4.04c0,0.66,0.16,1.15,0.46,1.48C296.48,16.03,296.95,16.19,297.59,16.19 M165.18,29.59
	c0.75,0,1.41-0.15,1.97-0.43c0.57-0.29,1.07-0.69,1.49-1.21v-4.2h-3.83v1.82h1.9v1.56c-0.15,0.18-0.37,0.32-0.64,0.44
	c-0.27,0.12-0.57,0.18-0.91,0.18c-0.65,0-1.18-0.3-1.59-0.91c-0.41-0.61-0.61-1.47-0.61-2.58c0-1.11,0.2-1.97,0.61-2.58
	c0.41-0.61,0.93-0.91,1.58-0.91c0.43,0,0.78,0.13,1.06,0.39c0.27,0.26,0.5,0.56,0.66,0.93l1.66-0.79c-0.14-0.32-0.31-0.62-0.52-0.9
	c-0.2-0.28-0.44-0.53-0.71-0.75c-0.27-0.22-0.59-0.39-0.95-0.52c-0.36-0.13-0.76-0.19-1.2-0.19c-0.64,0-1.22,0.12-1.75,0.38
	c-0.53,0.25-0.97,0.61-1.35,1.08c-0.37,0.47-0.66,1.03-0.87,1.68c-0.21,0.65-0.31,1.38-0.31,2.19c0,0.8,0.1,1.53,0.31,2.19
	c0.21,0.65,0.5,1.21,0.87,1.68c0.37,0.46,0.83,0.82,1.35,1.08C163.95,29.46,164.54,29.59,165.18,29.59 M176.08,29.4v-7.46h-1.83v5.1
	c-0.13,0.24-0.31,0.45-0.54,0.63c-0.23,0.18-0.49,0.28-0.78,0.28c-0.3,0-0.54-0.08-0.71-0.24c-0.17-0.17-0.26-0.44-0.26-0.83v-4.93
	h-1.83v5.64c0,0.63,0.16,1.12,0.47,1.47c0.32,0.36,0.81,0.53,1.49,0.53c0.49,0,0.92-0.11,1.29-0.34c0.37-0.23,0.66-0.49,0.87-0.79
	v0.94H176.08z M183.36,29.4v-5c0-0.47-0.08-0.88-0.22-1.22c-0.15-0.34-0.35-0.61-0.61-0.82c-0.26-0.21-0.56-0.36-0.91-0.46
	c-0.35-0.1-0.72-0.15-1.11-0.15c-0.48,0-0.97,0.09-1.48,0.26c-0.51,0.17-0.96,0.44-1.34,0.82l0.68,1.27
	c0.28-0.27,0.57-0.47,0.87-0.6c0.3-0.13,0.62-0.2,0.94-0.2c0.43,0,0.77,0.12,1.01,0.35c0.23,0.23,0.35,0.55,0.35,0.95v0.97
	c-0.21-0.29-0.48-0.51-0.83-0.66c-0.35-0.15-0.72-0.22-1.11-0.22c-0.29,0-0.58,0.05-0.84,0.14c-0.27,0.1-0.51,0.25-0.72,0.45
	c-0.21,0.2-0.38,0.45-0.51,0.75c-0.13,0.3-0.19,0.66-0.19,1.07c0,0.4,0.06,0.75,0.19,1.06c0.13,0.3,0.3,0.56,0.51,0.77
	c0.21,0.21,0.45,0.37,0.72,0.48c0.27,0.11,0.55,0.16,0.84,0.16c0.37,0,0.74-0.08,1.1-0.24c0.35-0.16,0.63-0.39,0.84-0.69v0.74
	H183.36z M180.3,28.33c-0.34,0-0.62-0.11-0.83-0.32c-0.21-0.22-0.31-0.51-0.31-0.86c0-0.36,0.1-0.65,0.31-0.87
	c0.21-0.22,0.48-0.33,0.83-0.33c0.25,0,0.49,0.06,0.71,0.19c0.22,0.13,0.39,0.31,0.52,0.53v0.96c-0.13,0.22-0.3,0.4-0.52,0.52
	C180.79,28.27,180.55,28.33,180.3,28.33 M186.84,29.4v-4.97c0.15-0.26,0.38-0.47,0.68-0.64c0.3-0.17,0.59-0.25,0.89-0.25
	c0.18,0,0.32,0.01,0.44,0.05v-1.82c-0.2,0-0.4,0.03-0.59,0.09c-0.2,0.06-0.38,0.14-0.56,0.25c-0.18,0.11-0.34,0.24-0.49,0.39
	c-0.14,0.15-0.27,0.31-0.37,0.47v-1.02h-1.82v7.46H186.84z M195.51,29.4v-5c0-0.47-0.07-0.88-0.22-1.22
	c-0.15-0.34-0.35-0.61-0.6-0.82c-0.26-0.21-0.56-0.36-0.91-0.46c-0.35-0.1-0.72-0.15-1.12-0.15c-0.48,0-0.97,0.09-1.48,0.26
	c-0.51,0.17-0.96,0.44-1.34,0.82l0.69,1.27c0.27-0.27,0.56-0.47,0.86-0.6c0.31-0.13,0.62-0.2,0.95-0.2c0.44,0,0.77,0.12,1,0.35
	c0.23,0.23,0.35,0.55,0.35,0.95v0.97c-0.2-0.29-0.48-0.51-0.83-0.66c-0.35-0.15-0.72-0.22-1.1-0.22c-0.29,0-0.58,0.05-0.85,0.14
	c-0.27,0.1-0.5,0.25-0.72,0.45c-0.21,0.2-0.38,0.45-0.51,0.75c-0.13,0.3-0.19,0.66-0.19,1.07c0,0.4,0.06,0.75,0.19,1.06
	c0.13,0.3,0.3,0.56,0.51,0.77c0.22,0.21,0.45,0.37,0.72,0.48c0.27,0.11,0.55,0.16,0.85,0.16c0.37,0,0.74-0.08,1.09-0.24
	c0.35-0.16,0.64-0.39,0.84-0.69v0.74H195.51z M192.45,28.33c-0.35,0-0.62-0.11-0.83-0.32c-0.21-0.22-0.31-0.51-0.31-0.86
	c0-0.36,0.11-0.65,0.31-0.87c0.21-0.22,0.48-0.33,0.83-0.33c0.25,0,0.49,0.06,0.71,0.19c0.22,0.13,0.4,0.31,0.52,0.53v0.96
	c-0.12,0.22-0.3,0.4-0.52,0.52C192.94,28.27,192.7,28.33,192.45,28.33 M203.11,29.4v-5.6c0-0.63-0.16-1.12-0.47-1.49
	c-0.32-0.37-0.81-0.55-1.49-0.55c-0.48,0-0.91,0.12-1.29,0.35c-0.38,0.24-0.67,0.51-0.87,0.8v-0.97h-1.83v7.46h1.83v-5.08
	c0.13-0.23,0.31-0.44,0.54-0.63c0.23-0.19,0.49-0.29,0.8-0.29c0.3,0,0.54,0.09,0.71,0.26c0.17,0.17,0.25,0.45,0.25,0.84v4.91H203.11
	z M206.96,29.59c0.33,0,0.62-0.04,0.85-0.12c0.23-0.08,0.42-0.19,0.56-0.31L208,27.73c-0.05,0.06-0.13,0.11-0.23,0.16
	c-0.1,0.04-0.21,0.06-0.32,0.06c-0.17,0-0.3-0.07-0.4-0.21c-0.09-0.14-0.13-0.32-0.13-0.56v-3.6h1.22v-1.64h-1.22V19.9h-1.83v2.04
	h-0.96v1.64h0.96v4.04c0,0.66,0.15,1.15,0.46,1.48C205.85,29.42,206.33,29.59,206.96,29.59 M212.33,29.59c0.5,0,0.98-0.1,1.44-0.29
	c0.47-0.19,0.86-0.47,1.19-0.83l-0.84-1.11c-0.2,0.24-0.46,0.42-0.76,0.54c-0.3,0.12-0.58,0.19-0.84,0.19
	c-0.56,0-0.99-0.18-1.28-0.52c-0.29-0.35-0.46-0.78-0.5-1.3h4.63v-0.53c0-0.57-0.07-1.11-0.22-1.6c-0.14-0.49-0.35-0.91-0.61-1.27
	c-0.27-0.35-0.6-0.63-0.99-0.83c-0.39-0.2-0.84-0.29-1.35-0.29c-0.5,0-0.96,0.1-1.37,0.31c-0.41,0.21-0.75,0.48-1.04,0.84
	c-0.29,0.35-0.5,0.76-0.65,1.24c-0.15,0.48-0.23,0.98-0.23,1.52c0,0.58,0.08,1.12,0.24,1.6c0.16,0.48,0.39,0.89,0.69,1.23
	c0.3,0.34,0.66,0.61,1.07,0.8C211.35,29.49,211.82,29.59,212.33,29.59 M210.75,25c0.01-0.2,0.04-0.4,0.1-0.6
	c0.05-0.2,0.13-0.39,0.24-0.56c0.11-0.17,0.26-0.31,0.44-0.42c0.18-0.11,0.39-0.16,0.65-0.16c0.26,0,0.49,0.06,0.67,0.16
	c0.18,0.11,0.32,0.25,0.43,0.42c0.11,0.17,0.19,0.36,0.24,0.56c0.05,0.21,0.08,0.41,0.09,0.6H210.75z M219.62,29.59
	c0.5,0,0.98-0.1,1.45-0.29c0.47-0.19,0.86-0.47,1.19-0.83l-0.84-1.11c-0.21,0.24-0.46,0.42-0.75,0.54c-0.3,0.12-0.58,0.19-0.85,0.19
	c-0.56,0-0.98-0.18-1.28-0.52c-0.29-0.35-0.46-0.78-0.5-1.3h4.63v-0.53c0-0.57-0.07-1.11-0.22-1.6c-0.14-0.49-0.34-0.91-0.61-1.27
	c-0.27-0.35-0.6-0.63-0.99-0.83c-0.39-0.2-0.84-0.29-1.35-0.29c-0.51,0-0.96,0.1-1.37,0.31c-0.41,0.21-0.75,0.48-1.03,0.84
	c-0.29,0.35-0.5,0.76-0.66,1.24c-0.15,0.48-0.23,0.98-0.23,1.52c0,0.58,0.08,1.12,0.24,1.6c0.16,0.48,0.39,0.89,0.68,1.23
	c0.3,0.34,0.66,0.61,1.08,0.8C218.63,29.49,219.1,29.59,219.62,29.59 M218.04,25c0.01-0.2,0.04-0.4,0.09-0.6
	c0.05-0.2,0.13-0.39,0.24-0.56c0.11-0.17,0.26-0.31,0.44-0.42c0.18-0.11,0.39-0.16,0.65-0.16c0.27,0,0.49,0.06,0.67,0.16
	c0.18,0.11,0.33,0.25,0.44,0.42c0.11,0.17,0.19,0.36,0.24,0.56c0.05,0.21,0.08,0.41,0.09,0.6H218.04z M234.71,29.4l-3.01-10.3h-2.46
	l-3.01,10.3h2.21l0.47-1.82h3.12l0.47,1.82H234.71z M231.63,25.76h-2.32l1.16-4.48L231.63,25.76z M238.12,32.43
	c0.4,0,0.81-0.05,1.22-0.16c0.41-0.1,0.77-0.28,1.09-0.53c0.32-0.25,0.58-0.6,0.78-1.05c0.2-0.44,0.3-1,0.3-1.68v-7.07h-1.83v0.94
	c-0.22-0.39-0.5-0.68-0.83-0.86c-0.33-0.18-0.67-0.27-1.02-0.27c-0.42,0-0.79,0.09-1.12,0.26c-0.33,0.17-0.61,0.42-0.85,0.74
	c-0.24,0.32-0.42,0.72-0.55,1.2c-0.13,0.47-0.19,1.01-0.19,1.61c0,1.22,0.25,2.16,0.74,2.81c0.49,0.65,1.15,0.97,1.97,0.97
	c0.35,0,0.69-0.1,1.02-0.29c0.32-0.2,0.6-0.48,0.83-0.85v0.91c0,0.33-0.04,0.61-0.13,0.83c-0.09,0.22-0.21,0.4-0.37,0.54
	c-0.15,0.14-0.33,0.24-0.52,0.3c-0.2,0.06-0.4,0.09-0.62,0.09c-0.76,0-1.39-0.27-1.89-0.82l-0.73,1.42c0.39,0.35,0.8,0.6,1.23,0.74
	C237.08,32.36,237.57,32.43,238.12,32.43 M238.41,27.7c-0.47,0-0.82-0.2-1.06-0.59c-0.24-0.39-0.36-0.91-0.36-1.56
	c0-0.65,0.12-1.17,0.36-1.57c0.24-0.39,0.59-0.59,1.06-0.59c0.25,0,0.5,0.08,0.73,0.26c0.24,0.17,0.41,0.38,0.52,0.62v2.56
	c-0.11,0.24-0.29,0.44-0.52,0.61C238.91,27.62,238.66,27.7,238.41,27.7 M246.18,29.59c0.5,0,0.98-0.1,1.45-0.29
	c0.47-0.19,0.86-0.47,1.19-0.83l-0.84-1.11c-0.2,0.24-0.45,0.42-0.75,0.54c-0.3,0.12-0.58,0.19-0.84,0.19
	c-0.56,0-0.98-0.18-1.28-0.52c-0.29-0.35-0.46-0.78-0.5-1.3h4.63v-0.53c0-0.57-0.07-1.11-0.22-1.6c-0.14-0.49-0.35-0.91-0.61-1.27
	c-0.27-0.35-0.6-0.63-0.99-0.83c-0.39-0.2-0.84-0.29-1.35-0.29c-0.51,0-0.96,0.1-1.37,0.31c-0.4,0.21-0.75,0.48-1.03,0.84
	c-0.29,0.35-0.5,0.76-0.65,1.24c-0.15,0.48-0.23,0.98-0.23,1.52c0,0.58,0.08,1.12,0.24,1.6c0.16,0.48,0.39,0.89,0.69,1.23
	c0.29,0.34,0.65,0.61,1.07,0.8C245.19,29.49,245.67,29.59,246.18,29.59 M244.6,25c0.01-0.2,0.04-0.4,0.09-0.6
	c0.05-0.2,0.14-0.39,0.25-0.56c0.11-0.17,0.26-0.31,0.44-0.42c0.18-0.11,0.39-0.16,0.65-0.16c0.27,0,0.49,0.06,0.67,0.16
	c0.18,0.11,0.33,0.25,0.44,0.42c0.11,0.17,0.18,0.36,0.24,0.56c0.05,0.21,0.08,0.41,0.09,0.6H244.6z M256.39,29.4v-5.6
	c0-0.63-0.16-1.12-0.48-1.49c-0.31-0.37-0.81-0.55-1.49-0.55c-0.48,0-0.9,0.12-1.28,0.35c-0.38,0.24-0.67,0.51-0.88,0.8v-0.97h-1.83
	v7.46h1.83v-5.08c0.13-0.23,0.31-0.44,0.54-0.63c0.23-0.19,0.5-0.29,0.8-0.29s0.54,0.09,0.7,0.26c0.17,0.17,0.25,0.45,0.25,0.84
	v4.91H256.39z M261.03,29.59c0.58,0,1.06-0.1,1.45-0.3c0.38-0.2,0.69-0.44,0.9-0.71l-0.91-1.28c-0.34,0.43-0.75,0.65-1.23,0.65
	c-0.27,0-0.5-0.06-0.71-0.18c-0.21-0.12-0.38-0.28-0.52-0.48c-0.14-0.2-0.25-0.44-0.33-0.72c-0.07-0.28-0.11-0.58-0.11-0.91
	c0-0.65,0.15-1.19,0.44-1.62c0.29-0.43,0.7-0.65,1.23-0.65c0.48,0,0.89,0.21,1.23,0.65l0.91-1.28c-0.21-0.27-0.51-0.5-0.9-0.7
	c-0.39-0.2-0.87-0.3-1.45-0.3c-0.51,0-0.97,0.1-1.38,0.29c-0.41,0.2-0.77,0.47-1.06,0.81c-0.29,0.34-0.52,0.76-0.68,1.24
	c-0.16,0.48-0.25,1-0.25,1.57c0,0.57,0.08,1.1,0.25,1.58c0.16,0.48,0.39,0.89,0.68,1.24c0.29,0.35,0.65,0.62,1.06,0.81
	C260.06,29.49,260.52,29.59,261.03,29.59 M264.28,32.32c0.1,0.03,0.25,0.06,0.43,0.08c0.19,0.02,0.34,0.03,0.45,0.03
	c0.3,0,0.57-0.03,0.81-0.09c0.25-0.05,0.47-0.15,0.67-0.28c0.2-0.14,0.38-0.32,0.54-0.54c0.16-0.23,0.29-0.51,0.4-0.85l2.88-8.72
	h-1.95l-1.49,5.22l-1.47-5.22h-1.95l2.48,7.6l-0.24,0.71c-0.13,0.36-0.4,0.54-0.81,0.54c-0.07,0-0.15-0.01-0.24-0.03
	c-0.09-0.02-0.17-0.05-0.23-0.08L264.28,32.32z"/>
<radialGradient id="SVGID_1_" cx="-685.8664" cy="930.535" r="1" gradientTransform="matrix(38.8345 0 0 39.4172 26681.1055 -36669.9844)" gradientUnits="userSpaceOnUse">
	<stop  offset="0" style="stop-color:#FFFFFF"/>
	<stop  offset="0.0598" style="stop-color:#EBF8FD"/>
	<stop  offset="0.1829" style="stop-color:#B6E7F7"/>
	<stop  offset="0.3589" style="stop-color:#60CCEE"/>
	<stop  offset="0.544" style="stop-color:#00ADE4"/>
	<stop  offset="1" style="stop-color:#002345"/>
</radialGradient>
<path fill="url(#SVGID_1_)" d="M44.64,14.14c-0.55,0.24-0.81,0.89-0.58,1.45c1.11,2.66,1.67,5.49,1.67,8.41
	c0,1.79-0.22,3.52-0.62,5.19c-0.32,1.05-0.89,2.02-1.67,2.9c0.02-0.38,0.03-0.76,0.03-1.14c0.01-4.25-1.15-8.74-3.3-12.95
	c1.58-1.37,2.58-3.07,2.92-4.96c0.11-0.6-0.28-1.18-0.88-1.29c-0.59-0.11-1.16,0.29-1.27,0.89c-0.23,1.25-0.87,2.4-1.87,3.38
	c-0.31-0.52-0.64-1.04-0.98-1.55c-1.92-2.85-4.19-5.31-6.68-7.28c3.29,0.22,6.32,1.03,8.77,2.41c0.38,0.22,0.89,0.22,1.25-0.09
	c0.47-0.39,0.52-1.09,0.14-1.56c-3.52-4.99-9.59-7.74-17.12-7.74C11.52,0.19,1,10.87,1,24c0,2.26,0.32,4.45,0.91,6.53
	c0.03,0.14,0.07,0.28,0.11,0.42c0.01,0.03,0.02,0.05,0.03,0.08C5,40.73,13.93,47.81,24.46,47.81c4.87,0,9.4-1.51,13.15-4.1
	c0.04-0.02,0.07-0.04,0.11-0.06c0.22-0.16,0.44-0.32,0.64-0.48c4.32-3.24,7.51-7.94,8.85-13.38c0.07-0.25,0.14-0.5,0.2-0.76
	c0.01-0.06,0.01-0.12,0.02-0.18c0.32-1.56,0.49-3.18,0.49-4.84c0-3.21-0.62-6.33-1.84-9.27C45.84,14.17,45.2,13.91,44.64,14.14z
	 M36.3,15.7c0.36,0.54,0.7,1.08,1.02,1.63c-1.74,1.02-3.95,1.63-6.32,1.81c-0.2-3.82-0.65-7.5-1.35-10.56
	C32.12,10.45,34.39,12.87,36.3,15.7z M33.06,3.97c1.09,0.45,2.18,1.01,3.21,1.73c-1.65-0.42-3.41-0.67-5.23-0.76
	C31.8,4.45,32.48,4.11,33.06,3.97z M30.17,3.05c-0.61,0.33-1.24,0.75-1.88,1.24c-0.28-0.65-0.59-1.23-0.92-1.73
	C28.26,2.67,29.2,2.82,30.17,3.05z M19.8,19.22c1.57,0.71,3.27,1.28,5.06,1.67c1.36,0.3,2.72,0.46,4.05,0.5
	c0.02,0.83,0.03,1.69,0.03,2.57c0,5.22-0.41,9.54-1,12.92c-1.95-0.08-3.96-0.34-5.98-0.78c-2.7-0.59-5.25-1.46-7.57-2.56
	c0.76-3.47,2.17-7.67,4.41-12.33C19.12,20.54,19.46,19.87,19.8,19.22z M15.99,14.11c-0.9-0.86-1.59-1.75-2.05-2.65
	c2.05-1.25,4.31-2.27,6.72-3c1.43-0.44,2.88-0.76,4.33-0.99c-2.09,2.38-4.18,5.39-6.09,8.8C17.81,15.63,16.83,14.91,15.99,14.11z
	 M28.82,19.17c-1.16-0.05-2.33-0.2-3.5-0.45c-1.58-0.34-3.08-0.83-4.46-1.45c2.03-3.61,4.26-6.76,6.46-9.09
	C28,10.92,28.57,14.61,28.82,19.17z M24.43,2.41c0.37,0,0.83,0.46,1.3,1.33c-0.24-0.1-0.48-0.21-0.73-0.3
	c-0.99-0.39-1.96-0.68-2.92-0.89C22.85,2.46,23.64,2.41,24.43,2.41z M13.34,7.86c0.24-1.15,0.92-2.18,1.98-3.03
	c2.55-0.77,5.51-0.58,8.62,0.57c-1.31,0.23-2.62,0.54-3.91,0.94c-2.41,0.73-4.68,1.73-6.76,2.95C13.22,8.81,13.25,8.33,13.34,7.86z
	 M11.3,7.05c-0.03,0.11-0.06,0.23-0.08,0.34c-0.22,1.04-0.2,2.11,0.06,3.18c-2.35,1.64-4.39,3.59-6.01,5.77
	c-0.5,0.67-0.94,1.35-1.34,2.03C5.13,13.83,7.76,9.89,11.3,7.05z M11.65,41.23C8.01,38.43,5.28,34.47,4,29.91
	c-0.18-0.72-0.3-1.45-0.35-2.2c0.73,1.05,1.62,2.08,2.67,3.07c1.6,1.5,3.49,2.84,5.6,3.99C11.49,37.22,11.37,39.44,11.65,41.23z
	 M7.81,29.16c-1.85-1.74-3.13-3.58-3.78-5.41C4.54,21.7,5.54,19.65,7,17.68c1.39-1.87,3.12-3.55,5.1-5
	c0.57,1.05,1.37,2.07,2.39,3.05c0.97,0.92,2.1,1.76,3.35,2.49c-0.34,0.67-0.68,1.34-1.01,2.03c-1.93,4.02-3.52,8.35-4.44,12.27
	C10.67,31.52,9.13,30.4,7.81,29.16z M24.48,45.58c-0.05,0-0.1,0.01-0.15,0.01c-3.25-0.02-6.32-0.78-9.08-2.12
	c-0.06-0.05-0.13-0.1-0.21-0.14c-1.21-0.6-1.7-3.34-1.07-7.54c2.33,1.06,4.86,1.9,7.53,2.48c2.02,0.44,4.03,0.71,6,0.81
	C26.53,43.34,25.3,45.58,24.48,45.58z M37.05,41.39c-2.72,2.03-5.93,3.43-9.42,3.96c0.87-1.53,1.58-3.69,2.12-6.22
	c3.08-0.04,6-0.5,8.59-1.38c0.65-0.22,1.27-0.47,1.86-0.74C39.48,38.8,38.42,40.29,37.05,41.39z M41.02,34.08
	c-0.98,0.61-2.11,1.14-3.38,1.57c-2.26,0.77-4.79,1.19-7.48,1.26c0.65-3.94,0.96-8.51,0.96-12.95c0-0.87-0.01-1.73-0.04-2.6
	c2.72-0.18,5.23-0.9,7.29-2.1c1.91,3.83,2.93,7.86,2.92,11.67C41.29,32.04,41.19,33.09,41.02,34.08z"/>
<path fill="#002345" d="M243.13,36.14c1.55,0,2.41,0.76,2.41,2.15c0,1.31-0.85,2.09-2.25,2.09h-0.99v2h-1.31v-6.23H243.13z
	 M242.3,39.29h0.78c0.76,0,1.14-0.34,1.14-1c0-0.67-0.42-1.05-1.19-1.05h-0.74V39.29z M238.58,39.87c0,0.92-0.34,1.36-1.06,1.36
	c-0.72,0-1.08-0.46-1.08-1.36v-3.73h-1.31v3.65c0,0.89,0.22,1.57,0.65,2.01c0.4,0.41,0.99,0.62,1.74,0.62
	c1.08,0,2.36-0.46,2.36-2.63v-3.65h-1.31V39.87z M231.57,36.09c1.33,0,2.74,0.84,2.74,3.18c0,2.33-1.42,3.16-2.74,3.16
	c-1.33,0-2.75-0.83-2.75-3.16C228.82,36.93,230.24,36.09,231.57,36.09 M231.57,41.26c0.52,0,1.39-0.26,1.39-2c0-1.74-0.87-2-1.39-2
	c-0.9,0-1.4,0.71-1.4,2C230.17,40.56,230.67,41.26,231.57,41.26 M227.47,40.49c0.22,0.44,0.41,0.83,0.84,0.83h0.31v1.03l-0.04,0.01
	c-0.01,0-0.24,0.06-0.64,0.06c-1.03,0-1.35-0.72-1.63-1.36c-0.23-0.52-0.43-0.97-0.97-0.97h-0.57v2.29h-1.31v-6.23h2.18
	c1.59,0,2.33,0.63,2.33,1.98c0,0.83-0.49,1.35-0.99,1.57C227.19,39.91,227.33,40.2,227.47,40.49 M224.77,39.05h0.73
	c0.73,0,1.18-0.34,1.18-0.9c0-0.58-0.39-0.92-1.08-0.92h-0.82V39.05z M219.98,40.1h1.35v0.07c0,0.4-0.14,1.08-1.08,1.08
	c-0.89,0-1.42-0.74-1.42-1.98c0-1.27,0.51-2,1.39-2c1.06,0,1.09,1.08,1.09,1.13v0.07l1.22-0.19v-0.06c0-0.45-0.39-2.13-2.33-2.13
	c-1.73,0-2.72,1.16-2.72,3.18c0,1.98,1.02,3.16,2.74,3.16c1.73,0,2.34-1.22,2.34-2.27v-1.08h-2.58V40.1z M216.06,36.14h-1.55
	l-2.03,2.8v-2.8h-1.33v6.23h1.33v-2.87l2.08,2.87h1.57l-2.37-3.14L216.06,36.14z M208.67,39.99l-2.15-3.85h-1.33v6.23h1.31v-3.72
	l2.14,3.72h1.34v-6.23h-1.31V39.99z M202.61,36.18l2.24,6.19h-1.36l-0.53-1.53h-2.04l-0.51,1.53h-1.37l2.26-6.23h1.29L202.61,36.18z
	 M201.94,37.84l-0.66,1.96h1.34L201.94,37.84z M197.82,39.09c0.47,0.14,1.09,0.58,1.09,1.51c0,1.13-0.78,1.77-2.15,1.77h-2.59v-6.23
	h2.34c1.33,0,2,0.56,2,1.68C198.51,38.68,198.13,38.98,197.82,39.09 M196.37,38.69c0.54,0,0.8-0.23,0.8-0.73
	c0-0.47-0.32-0.72-0.96-0.72h-0.73v1.45H196.37z M195.48,41.27h1.03c0.66,0,0.98-0.25,0.98-0.8c0-0.67-0.55-0.81-1.01-0.81h-1V41.27
	z M188.78,36.14c1.91,0,3.05,1.2,3.05,3.22c0,1.91-1.02,3.01-2.79,3.01h-2.08v-6.23H188.78z M188.27,41.27h0.76
	c0.94,0,1.5-0.72,1.5-1.93c0-1.39-0.59-2.1-1.77-2.1h-0.5V41.27z M183.69,36.14h-1.31v6.23h3.96v-1.1h-2.66V36.14z M180.62,40.49
	c0.22,0.44,0.4,0.83,0.84,0.83h0.31v1.03l-0.05,0.01c-0.01,0-0.24,0.06-0.64,0.06c-1.03,0-1.35-0.72-1.63-1.36
	c-0.23-0.52-0.43-0.97-0.97-0.97h-0.57v2.29h-1.31v-6.23h2.17c1.59,0,2.33,0.63,2.33,1.98c0,0.83-0.5,1.35-0.99,1.57
	C180.35,39.91,180.49,40.2,180.62,40.49 M177.92,39.05h0.73c0.73,0,1.18-0.34,1.18-0.9c0-0.58-0.4-0.92-1.08-0.92h-0.83V39.05z
	 M173.12,36.09c1.33,0,2.75,0.84,2.75,3.18c0,2.33-1.42,3.16-2.75,3.16c-1.33,0-2.75-0.83-2.75-3.16
	C170.37,36.93,171.79,36.09,173.12,36.09 M173.12,41.26c0.52,0,1.39-0.26,1.39-2c0-1.74-0.87-2-1.39-2c-0.9,0-1.4,0.71-1.4,2
	C171.72,40.56,172.22,41.26,173.12,41.26 M168.71,36.14h1.48l-1.76,6.23h-1.48l-1.07-3.91l-1.09,3.91h-1.48l-1.76-6.23h1.52
	l1.03,4.55l1.24-4.55h1.1l1.2,4.55L168.71,36.14z M152.84,42.97c0.23,0,0.42-0.19,0.42-0.43V5.45c0-0.24-0.19-0.43-0.42-0.43
	c-0.23,0-0.42,0.19-0.42,0.43v37.09C152.42,42.78,152.61,42.97,152.84,42.97 M80.77,37.02V11.54h-7.53l-6.1,15.4l-6.1-15.4h-7.49
	v25.48h5.34V19.18l7.08,17.84h2.33l7.08-17.84v17.84H80.77z M85.03,37.02h5.91V11.54h-5.91V37.02z M106.1,22.8v4.99h6.63v2.88
	c-1,0.91-3.04,1.88-5.22,1.88c-4.49,0-7.74-3.47-7.74-8.24c0-4.78,3.26-8.24,7.74-8.24c2.79,0,4.85,1.69,5.84,3.26l0.06,0.1
	l4.54-2.5l0.12-0.06l-0.07-0.11c-1.64-2.63-4.78-5.75-10.49-5.75c-7.82,0-13.49,5.6-13.49,13.31c0,7.73,5.67,13.34,13.49,13.34
	c4.25,0,7.98-1.68,10.78-4.85l0.03-0.03V22.8H106.1z M138.79,37.02l-1.54-4.32h-10.77l-1.58,4.32h-6.1l9.71-25.48h6.7l9.67,25.48
	H138.79z M131.86,16.96l-3.92,10.97h7.83L131.86,16.96z"/>
</svg>
