<svg width="40" height="40" viewBox="0 0 40 40" fill="none" xmlns="http://www.w3.org/2000/svg">
<g clip-path="url(#clip0_2581_1006)">
<g clip-path="url(#clip1_2581_1006)">
<mask id="mask0_2581_1006" style="mask-type:luminance" maskUnits="userSpaceOnUse" x="0" y="0" width="40" height="40">
<path d="M39.4245 0H0V39.5683H39.4245V0Z" fill="white"/>
</mask>
<g mask="url(#mask0_2581_1006)">
<path d="M19.7555 0.100586C8.90657 0.100586 0.0864258 8.92073 0.0864258 19.7696C0.0864258 30.6186 8.90657 39.4387 19.7555 39.4387C30.6044 39.4387 39.4246 30.6186 39.4246 19.7696C39.4246 8.92073 30.6044 0.100586 19.7555 0.100586ZM19.7555 37.9855C9.71232 37.9855 1.52527 29.8128 1.52527 19.7553C1.52527 9.69771 9.69794 1.52504 19.7555 1.52504C29.813 1.52504 37.9857 9.69771 37.9857 19.7553C37.9857 29.8128 29.813 37.9855 19.7555 37.9855Z" fill="#F87171"/>
<path d="M27.8706 15.7408C27.7411 15.6545 27.5972 15.597 27.439 15.597H22.0145L27.3814 6.24444C27.5829 5.89911 27.4678 5.46746 27.1224 5.28041C27.0217 5.22285 26.8922 5.17969 26.7771 5.17969H19.2519C18.9785 5.17969 18.7339 5.33796 18.6188 5.59695L11.4246 20.6761C11.2663 21.0358 11.4246 21.4531 11.7699 21.6113C11.8562 21.6545 11.957 21.6689 12.0577 21.6833H17.4678L13.5685 33.4387C13.4965 33.7696 13.6692 34.1006 13.9857 34.23C14.2879 34.3883 14.662 34.302 14.8778 34.0286L28.0145 16.748C28.2447 16.4315 28.1872 15.9854 27.8706 15.7552V15.7408ZM16.3311 29.8272L19.1944 21.1365C19.3239 20.7624 19.1224 20.3595 18.7483 20.2444C18.6764 20.2157 18.6044 20.2013 18.5325 20.2013H13.2519L19.7124 6.53221H25.5972L20.216 15.9567C20.0145 16.302 20.1296 16.7336 20.4749 16.9207C20.5757 16.9782 20.7052 17.0214 20.8203 17.0214H26.0433L16.3311 29.8272Z" fill="#F87171"/>
</g>
</g>
</g>
<defs>
<clipPath id="clip0_2581_1006">
<rect width="40" height="40" fill="white"/>
</clipPath>
<clipPath id="clip1_2581_1006">
<rect width="40" height="40" fill="white"/>
</clipPath>
</defs>
</svg>
