<svg width="40" height="40" viewBox="0 0 40 40" fill="none" xmlns="http://www.w3.org/2000/svg">
<g clip-path="url(#clip0_2581_983)">
<g clip-path="url(#clip1_2581_983)">
<mask id="mask0_2581_983" style="mask-type:luminance" maskUnits="userSpaceOnUse" x="0" y="0" width="40" height="40">
<path d="M39.4245 0H0V39.5683H39.4245V0Z" fill="white"/>
</mask>
<g mask="url(#mask0_2581_983)">
<path d="M19.7554 0.10083C8.90645 0.10083 0.0863037 8.92097 0.0863037 19.7699C0.0863037 30.6188 8.90645 39.439 19.7554 39.439C30.6043 39.439 39.4244 30.6188 39.4244 19.7699C39.4244 8.92097 30.6043 0.10083 19.7554 0.10083ZM19.7554 37.9857C9.7122 37.9857 1.52515 29.8131 1.52515 19.7555C1.52515 9.69795 9.69781 1.52529 19.7554 1.52529C29.8129 1.52529 37.9856 9.69795 37.9856 19.7555C37.9856 29.8131 29.8129 37.9857 19.7554 37.9857Z" fill="#F87171"/>
<path d="M21.741 8.01443C22.3165 7.48206 22.6331 6.74825 22.6331 5.95688C22.6331 4.40292 21.3669 3.15112 19.8273 3.15112C18.2878 3.15112 17.0216 4.41731 17.0216 5.95688C17.0216 7.49645 17.3525 7.48206 17.928 8.01443C16.446 8.20148 15.3237 9.46767 15.3237 10.9785V13.0072C15.3237 13.5972 15.7986 14.072 16.3885 14.072H16.5899V10.9641C16.5899 10.0288 17.3669 9.25184 18.3021 9.25184H21.3525C22.2878 9.25184 23.0647 10.0144 23.0647 10.9641V14.072H23.2806C23.8705 14.072 24.3453 13.5972 24.3453 13.0072V10.9785C24.3453 9.46767 23.2086 8.20148 21.741 8.01443ZM21.3525 5.95688C21.3525 6.79141 20.6619 7.48206 19.8273 7.48206C18.9928 7.48206 18.3021 6.79141 18.3021 5.95688C18.3021 5.12235 18.9928 4.4317 19.8273 4.4317C20.6619 4.4317 21.3525 5.12235 21.3525 5.95688Z" fill="#F87171"/>
<path d="M21.741 30.0865C22.3165 29.5541 22.6331 28.8203 22.6331 28.0289C22.6331 26.4749 21.3669 25.2231 19.8273 25.2231C18.2877 25.2231 17.0216 26.4893 17.0216 28.0289C17.0216 29.5685 17.3525 29.5541 17.9136 30.0865C16.4316 30.2735 15.3093 31.5397 15.3093 33.0505V35.0793C15.3093 35.6692 15.7841 36.144 16.3741 36.144H16.5755V33.0361C16.5755 32.1008 17.3525 31.3239 18.2877 31.3239H21.3381C22.2734 31.3239 23.0503 32.0865 23.0503 33.0361V36.144H23.2662C23.8561 36.144 24.3309 35.6692 24.3309 35.0793V33.0505C24.3309 31.5397 23.1942 30.2735 21.7266 30.0865H21.741ZM21.3525 28.0289C21.3525 28.8634 20.6618 29.5541 19.8273 29.5541C18.9928 29.5541 18.3021 28.8634 18.3021 28.0289C18.3021 27.1944 18.9928 26.5037 19.8273 26.5037C20.6618 26.5037 21.3525 27.1944 21.3525 28.0289Z" fill="#F87171"/>
<path d="M10.2733 20.1151C11.2086 20.1151 11.9855 20.8777 11.9855 21.8274V24.9353H12.2014C12.7913 24.9353 13.2661 24.4604 13.2661 23.8705V21.8417C13.2661 20.331 12.1294 19.0648 10.6618 18.8777C11.2373 18.3453 11.5683 17.6115 11.5683 16.8202C11.5683 15.2662 10.3021 14.0144 8.76251 14.0144C7.22294 14.0144 5.95675 15.2662 5.95675 16.8202C5.95675 18.3741 6.28769 18.3453 6.86323 18.8777C5.38121 19.0648 4.25891 20.331 4.25891 21.8417V23.8705C4.25891 24.4604 4.73373 24.9353 5.32366 24.9353H5.5251V21.8274C5.5251 20.8921 6.30208 20.1151 7.23733 20.1151H10.2877H10.2733ZM7.22294 16.8058C7.22294 15.9712 7.91359 15.2806 8.74812 15.2806C9.58265 15.2806 10.2733 15.9712 10.2733 16.8058C10.2733 17.6403 9.58265 18.331 8.74812 18.331C7.91359 18.331 7.22294 17.6403 7.22294 16.8058Z" fill="#F87171"/>
<path d="M33.1078 18.8633C33.6834 18.3309 34.0143 17.5971 34.0143 16.8058C34.0143 15.2518 32.7481 14 31.2086 14C29.669 14 28.4028 15.2518 28.4028 16.8058C28.4028 18.3597 28.7337 18.3309 29.3093 18.8633C27.8273 19.0504 26.705 20.3165 26.705 21.8273V23.8561C26.705 24.446 27.1798 24.9209 27.7697 24.9209H27.9711V21.813C27.9711 20.8777 28.7481 20.1007 29.6834 20.1007H32.7337C33.669 20.1007 34.446 20.8633 34.446 21.813V24.9209H34.6618C35.2517 24.9209 35.7265 24.446 35.7265 23.8561V21.8273C35.7265 20.3165 34.5898 19.0504 33.1222 18.8633H33.1078ZM32.7193 16.8058C32.7193 17.6403 32.0287 18.3309 31.1942 18.3309C30.3596 18.3309 29.669 17.6403 29.669 16.8058C29.669 15.9712 30.3596 15.2806 31.1942 15.2806C32.0287 15.2806 32.7193 15.9712 32.7193 16.8058Z" fill="#F87171"/>
<path d="M10.8201 9.82737L8.51794 12.259L9.5683 13.2518L11.8705 10.8202L12.9352 11.8274L13.9424 7.58276L9.75535 8.82017L10.8201 9.82737Z" fill="#F87171"/>
<path d="M26.1007 11.7268L30.2302 13.1369L29.3813 8.86351L28.2878 9.82754L26.0863 7.29517L24.9928 8.24481L27.1942 10.7628L26.1007 11.7268Z" fill="#F87171"/>
<path d="M31.5108 25.9138L28.7338 27.7987L27.9137 26.5901L26.0144 30.5181L30.3741 30.2016L29.5396 28.993L32.3166 27.1081L31.5108 25.9138Z" fill="#F87171"/>
<path d="M10.7625 27.7987L7.98556 25.9138L7.17981 27.1081L9.95679 28.993L9.12226 30.2016L13.482 30.5181L11.5827 26.5901L10.7625 27.7987Z" fill="#F87171"/>
</g>
</g>
</g>
<defs>
<clipPath id="clip0_2581_983">
<rect width="40" height="40" fill="white"/>
</clipPath>
<clipPath id="clip1_2581_983">
<rect width="40" height="40" fill="white"/>
</clipPath>
</defs>
</svg>
