<svg width="40" height="40" viewBox="0 0 40 40" fill="none" xmlns="http://www.w3.org/2000/svg">
<g clip-path="url(#clip0_2581_918)">
<g clip-path="url(#clip1_2581_918)">
<mask id="mask0_2581_918" style="mask-type:luminance" maskUnits="userSpaceOnUse" x="0" y="0" width="40" height="40">
<path d="M39.4245 0H0V39.5683H39.4245V0Z" fill="white"/>
</mask>
<g mask="url(#mask0_2581_918)">
<path d="M19.7554 39.4246C8.90645 39.4246 0.0863037 30.6044 0.0863037 19.7555C0.0863037 8.90658 8.92084 0.10083 19.7554 0.10083C30.5899 0.10083 39.4244 8.92097 39.4244 19.7699C39.4244 30.6188 30.6043 39.439 19.7554 39.439V39.4246ZM19.7554 1.53968C9.7122 1.53968 1.52515 9.71234 1.52515 19.7699C1.52515 29.8274 9.69782 38.0001 19.7554 38.0001C29.8129 38.0001 37.9856 29.8274 37.9856 19.7699C37.9856 9.71234 29.8129 1.53968 19.7554 1.53968Z" fill="#C084FC"/>
<path d="M25.1367 7.7124C24.7482 7.7124 24.4173 8.02895 24.4173 8.43183C24.4173 8.8347 24.7338 9.15125 25.1367 9.15125H28.3597L21.5396 15.3527L15.5971 10.734C15.3525 10.5325 14.9928 10.5325 14.7482 10.734L6.90648 16.4462C6.58993 16.6764 6.51799 17.1225 6.7482 17.439C6.97842 17.7556 7.42446 17.8275 7.74101 17.5973L15.1511 12.2016L21.1511 16.8635C21.4245 17.0793 21.8129 17.0649 22.0719 16.8347L29.4389 10.1441V13.4678C29.4389 13.8563 29.7554 14.1872 30.1583 14.1872C30.5612 14.1872 30.8777 13.8707 30.8777 13.4678V8.47499C30.8777 8.0865 30.5612 7.75557 30.1583 7.75557H25.1655L25.1367 7.7124ZM15.1511 27.6836C14.7626 27.6836 14.4317 27.3671 14.4317 26.9642V19.8275C14.4317 19.439 14.7482 19.1081 15.1511 19.1081C15.554 19.1081 15.8705 19.4246 15.8705 19.8275V26.9642C15.8705 27.3527 15.554 27.6836 15.1511 27.6836ZM15.1511 17.698C13.9712 17.698 13.0072 18.662 13.0072 19.8419V26.9786C13.0072 28.1584 13.9712 29.1225 15.1511 29.1225C16.3309 29.1225 17.295 28.1584 17.295 26.9786V19.8419C17.295 18.662 16.3309 17.698 15.1511 17.698ZM10.1583 26.9786C10.1583 27.3671 9.84173 27.698 9.43885 27.698C9.03597 27.698 8.71942 27.3815 8.71942 26.9786V24.1297C8.71942 23.7412 9.03597 23.4102 9.43885 23.4102C9.84173 23.4102 10.1583 23.7268 10.1583 24.1297V26.9786ZM9.45324 21.9858C8.27338 21.9858 7.30935 22.9498 7.30935 24.1297V26.9786C7.30935 28.1584 8.27338 29.1225 9.45324 29.1225C10.6331 29.1225 11.5971 28.1584 11.5971 26.9786V24.1297C11.5971 22.9498 10.6331 21.9858 9.45324 21.9858ZM20.8633 24.1297C20.8633 22.8059 21.3957 21.5397 22.3309 20.6045C23.2662 19.6692 24.5324 19.1369 25.8561 19.1369C27.1799 19.1369 28.446 19.6692 29.3813 20.6045C30.3165 21.5397 30.8489 22.8059 30.8489 24.1297C30.8489 25.4534 30.3165 26.7196 29.3813 27.6549C28.446 28.5901 27.1799 29.1225 25.8561 29.1225C24.5324 29.1225 23.2662 28.5901 22.3309 27.6549C21.3957 26.7196 20.8633 25.4534 20.8633 24.1297ZM32.2734 24.1297C32.2734 22.4318 31.5971 20.7915 30.3885 19.5973C29.1799 18.3887 27.554 17.7124 25.8561 17.7124C24.1583 17.7124 22.518 18.3887 21.3237 19.5973C20.1151 20.8059 19.4389 22.4318 19.4389 24.1297C19.4389 25.8275 20.1151 27.4678 21.3237 28.662C22.5324 29.8707 24.1583 30.5469 25.8561 30.5469C27.554 30.5469 29.1942 29.8707 30.3885 28.662C31.5971 27.4534 32.2734 25.8275 32.2734 24.1297ZM24.7914 22.8347C24.7914 22.7484 24.7914 22.7052 24.8201 22.6764C24.8489 22.6333 24.9065 22.5757 25.0072 22.5182C25.2374 22.4031 25.5683 22.3311 25.8417 22.3455C26.2014 22.3455 26.6043 22.4318 27.0216 22.5325C27.4101 22.6333 27.7986 22.3887 27.8849 22.0146C27.9856 21.6261 27.741 21.2376 27.3669 21.1513C27.1223 21.0937 26.8489 21.0361 26.5755 20.993V20.5757C26.5755 20.1872 26.259 19.8563 25.8561 19.8563C25.4532 19.8563 25.1367 20.1728 25.1367 20.5757V20.993C24.8633 21.0505 24.5899 21.1369 24.3309 21.2807C23.7986 21.5685 23.3094 22.1009 23.3525 22.9354C23.3957 23.6548 23.8705 24.0577 24.3165 24.3023C24.705 24.5182 25.1942 24.6477 25.5971 24.7628L25.6835 24.7915C26.1439 24.921 26.4748 25.0218 26.7194 25.1656C26.9209 25.2807 26.9353 25.3527 26.9353 25.4102C26.9353 25.511 26.9065 25.5685 26.8921 25.6117C26.8633 25.6549 26.8058 25.7124 26.7194 25.7556C26.5036 25.8707 26.1871 25.9282 25.8993 25.9138C25.482 25.9138 25.0791 25.77 24.5612 25.6117C24.4748 25.5829 24.3885 25.5541 24.3022 25.5254C23.9281 25.4102 23.5252 25.6261 23.4101 26.0002C23.295 26.3743 23.5108 26.7771 23.8849 26.8923C23.9568 26.921 24.0288 26.9354 24.1007 26.9642C24.4173 27.0649 24.777 27.18 25.1511 27.252V27.7556C25.1511 28.1441 25.4676 28.475 25.8705 28.475C26.2734 28.475 26.5899 28.1584 26.5899 27.7556V27.2807C26.8633 27.2376 27.1511 27.1369 27.4101 27.0074C27.9424 26.7196 28.4029 26.1728 28.3741 25.3671C28.3453 24.6477 27.9137 24.2016 27.4532 23.9282C27.036 23.6836 26.5036 23.5254 26.1007 23.4102C25.6403 23.2807 25.2806 23.18 25.036 23.0505C24.8201 22.9354 24.8201 22.8779 24.8201 22.8491L24.7914 22.8347Z" fill="#C084FC"/>
</g>
</g>
</g>
<defs>
<clipPath id="clip0_2581_918">
<rect width="40" height="40" fill="white"/>
</clipPath>
<clipPath id="clip1_2581_918">
<rect width="40" height="40" fill="white"/>
</clipPath>
</defs>
</svg>
