<svg width="40" height="40" viewBox="0 0 40 40" fill="none" xmlns="http://www.w3.org/2000/svg">
<g clip-path="url(#clip0_2581_934)">
<g clip-path="url(#clip1_2581_934)">
<mask id="mask0_2581_934" style="mask-type:luminance" maskUnits="userSpaceOnUse" x="0" y="0" width="40" height="40">
<path d="M39.4245 0H0V39.5683H39.4245V0Z" fill="white"/>
</mask>
<g mask="url(#mask0_2581_934)">
<path d="M19.7555 0.10083C8.90657 0.10083 0.0864258 8.92097 0.0864258 19.7699C0.0864258 30.6188 8.90657 39.439 19.7555 39.439C30.6044 39.439 39.4246 30.6188 39.4246 19.7699C39.4246 8.92097 30.6044 0.10083 19.7555 0.10083ZM19.7555 37.9857C9.71233 37.9857 1.52528 29.8131 1.52528 19.7555C1.52528 9.69795 9.69794 1.52529 19.7555 1.52529C29.813 1.52529 37.9857 9.69795 37.9857 19.7555C37.9857 29.8131 29.813 37.9857 19.7555 37.9857Z" fill="#34D399"/>
<path d="M27.3814 23.9139L21.8562 27.1225C21.698 27.2088 21.5541 27.2808 21.3958 27.3383C21.439 27.252 21.4677 27.1513 21.4965 27.0506C21.7987 25.9139 21.1224 24.734 19.9713 24.3599C19.9426 24.3599 19.9138 24.3455 19.885 24.3455C18.3167 24.0578 16.7483 23.4966 15.4965 23.0506C15.0649 22.8923 14.6476 22.7484 14.2879 22.6333C12.8203 22.1585 11.4965 22.734 10.403 23.3671L6.64759 25.5398C6.61882 25.5398 6.57565 25.5686 6.54687 25.583L6.34543 25.6981C6.23033 25.77 6.15838 25.8707 6.11522 26.0002C6.08644 26.1297 6.10083 26.2592 6.15838 26.3743L9.58284 32.3168C9.65479 32.4319 9.75551 32.5038 9.885 32.547C9.92817 32.547 9.97133 32.5614 10.0145 32.5614C10.1008 32.5614 10.1872 32.5326 10.2591 32.4894L10.3167 32.4606H10.331L10.4605 32.3743L11.0217 32.0434L18.0289 33.9139C18.4462 34.029 18.849 34.0865 19.2519 34.0865C20.0433 34.0865 20.8059 33.8707 21.5109 33.4247L31.5253 27.252C32.5037 26.6477 32.8203 25.1225 32.1872 24.0578C31.885 23.5398 30.6188 22.0146 27.367 23.9139H27.3814ZM30.8634 26.1441L20.849 32.3168C20.0864 32.7772 19.2663 32.8923 18.3886 32.6621L11.1224 30.7196C10.9498 30.6765 10.7771 30.6909 10.6332 30.7916L10.2591 31.0074L7.6404 26.475L11.0649 24.4894C11.9569 23.9714 12.9066 23.5398 13.8994 23.8563C14.2303 23.9571 14.6044 24.1009 15.0505 24.2592H15.0649C16.3454 24.734 17.9426 25.3096 19.6116 25.6117C20.1008 25.7844 20.3742 26.2592 20.2447 26.7196C20.1152 27.2088 19.7411 27.4247 19.1512 27.3671C18.3454 27.1945 17.5685 26.9786 16.7627 26.7484H16.7339C16.3598 26.6333 15.9569 26.5182 15.5541 26.4175C15.2087 26.3312 14.849 26.5326 14.7627 26.8779C14.6764 27.2232 14.8778 27.583 15.2231 27.6693C15.6116 27.77 16.0001 27.8851 16.3742 27.9858H16.403C17.2519 28.2304 18.0433 28.4606 18.9066 28.6333C18.9066 28.6333 18.9066 28.6333 19.626 28.7484C20.6908 28.9211 21.6404 28.7484 22.5181 28.2448L28.0433 25.0362C29.5541 24.1585 30.6908 24.0434 31.0936 24.734C31.367 25.1945 31.2519 25.9139 30.8634 26.1585V26.1441Z" fill="#34D399"/>
<path d="M25.9424 5.03616C25.0791 4.76278 24.1727 4.6189 23.223 4.6189C21.1655 4.6189 19.2662 5.32393 17.741 6.4894C15.4676 8.18724 14 10.8923 14 13.9426C14 19.0649 18.1727 23.2376 23.295 23.2376C28.4173 23.2376 32.5899 19.0649 32.5899 13.9426C32.5899 8.82034 29.7842 6.18724 25.9568 5.03616H25.9424ZM18.705 7.38149C18.8633 7.43904 18.9928 7.48221 19.0935 7.52537C19.8561 7.79875 20 7.79875 21.2662 7.52537C21.9137 7.38149 22.0144 7.46782 22.2302 7.64048C22.4604 7.82753 22.777 8.08652 23.4245 8.18724C23.5827 8.21602 23.6691 8.23041 23.7266 8.2448C23.7266 8.25918 23.7266 8.28796 23.7266 8.33113C23.7266 8.43185 23.7122 8.50379 23.6978 8.59012C23.6978 8.63329 23.6978 8.67645 23.6835 8.71962C23.6691 8.87789 23.6547 8.97861 23.6403 9.03616C23.5108 9.06494 23.3669 9.09372 23.223 9.13688C22.2878 9.33832 21.5683 9.66926 21.0647 10.1297C20.777 10.4031 20.5755 10.7628 20.4892 11.18C20.446 11.2088 20.3022 11.252 19.8993 11.3095C19.4388 11.3815 18.8489 11.4678 18.6187 11.9858C18.4892 12.2736 18.518 12.6333 18.6906 13.0218C18.7338 13.1081 18.777 13.1944 18.8201 13.2808C18.6763 13.1657 18.5324 13.0649 18.3885 12.993C17.8129 12.6621 16.7626 12.029 16.1295 10.3455C16.7338 9.15127 17.6259 8.12969 18.705 7.3671V7.38149ZM19.6978 14.4462C20.0432 14.6621 20.3741 14.6189 20.8058 14.5757C20.9496 14.5613 21.1223 14.5326 21.3381 14.5182C21.6547 14.547 23.4388 15.0793 23.9856 15.698C24.0432 15.77 24.0719 15.8131 24.0719 15.8275C24.0144 16.6045 23.6547 17.0362 23.2374 17.5398C22.8201 18.029 22.3597 18.5901 22.2446 19.4966C22.1727 20.0434 22.0432 20.3599 21.9568 20.5182C21.8561 20.3311 21.6978 19.9426 21.554 19.1369C21.2518 17.4103 20.7482 16.9354 20.1727 16.547C19.8705 16.3455 19.7122 16.2304 19.6978 15.1369C19.6978 14.8635 19.6547 14.6045 19.5827 14.3743C19.6259 14.4031 19.6547 14.4318 19.6978 14.4606V14.4462ZM18.518 20.3599C18.4892 20.3311 18.4604 20.3167 18.4317 20.288C18.3741 20.2448 18.3309 20.2016 18.2734 20.1585C16.4604 18.6765 15.295 16.4031 15.295 13.8563C15.295 11.3095 15.295 13.5398 15.3094 13.3959C15.3094 13.3383 15.3094 13.2808 15.3094 13.2232C15.3094 13.1657 15.3094 13.1081 15.3237 13.0649C15.3669 12.6477 15.4388 12.2448 15.554 11.8563C16.3165 13.1369 17.2806 13.7124 17.7986 14.0146C18.0719 14.1729 18.259 14.3311 18.3885 14.5326C18.5036 14.7052 18.518 14.9354 18.518 15.1225C18.5324 16.7196 18.9353 17.1225 19.4964 17.511C19.8129 17.7268 20.1439 17.957 20.3885 19.3383C20.4892 19.8851 20.7626 21.4534 21.6259 21.77C20.4748 21.5254 19.4245 21.0362 18.518 20.3599ZM23.223 21.9426C23.1942 21.9426 23.1655 21.9426 23.1367 21.9426C22.7338 21.9426 22.3309 21.8995 21.9424 21.8275H21.9712C22.8345 21.7988 23.2662 20.6765 23.3957 19.6405C23.4676 19.0937 23.7698 18.7196 24.1151 18.3024C24.5899 17.7268 25.1367 17.0793 25.223 15.9139C25.2518 15.5254 25.0935 15.1513 24.7626 14.8059C23.8705 13.9139 21.7266 13.2808 21.2662 13.3239C21.0216 13.3383 20.8345 13.3671 20.6763 13.3815C20.5612 13.3815 20.3741 13.4103 20.3165 13.4103C20.2446 13.3527 20.1727 13.2232 20.1151 13.1225C20.0863 13.0793 20.0719 13.0362 20.0432 13.0074C20.0432 12.9786 19.9712 12.8923 19.9137 12.7772C19.8561 12.6765 19.8129 12.5901 19.7698 12.5326C19.8705 12.5038 19.9712 12.4894 20.0576 12.4894C20.5755 12.4175 21.4532 12.288 21.6259 11.4247C21.6978 11.0506 21.8849 10.9354 22.2878 10.7196C22.5611 10.5757 22.8058 10.4462 23.1079 10.3743C23.2374 10.3455 23.3669 10.3167 23.5108 10.288C23.6691 10.2592 23.8273 10.216 23.9856 10.1729C24.0863 10.1441 24.187 10.1009 24.2734 10.0434C24.5036 9.89947 24.6619 9.66926 24.7626 9.35271C24.8633 9.02177 24.9065 8.6189 24.9065 8.23041C24.9065 7.91386 24.8201 7.66926 24.6619 7.46782C24.4029 7.13688 24.0144 7.06494 23.5971 7.00739C23.2806 6.96422 23.1511 6.8635 22.9928 6.71962C22.5899 6.37429 22.1583 6.1153 21.036 6.3599C20.705 6.43185 20.4892 6.47501 20.3165 6.50379C21.2374 6.14408 22.2302 5.92825 23.2806 5.92825C24.8921 5.92825 26.4029 6.41746 27.6547 7.2376C27.2662 7.39588 26.8777 7.58293 26.6043 7.89947C26.2878 8.27357 26.2158 8.76278 26.2302 9.10811C26.2302 9.53976 26.3022 9.89947 26.4317 10.1585C26.6906 10.6765 27.3525 10.5901 28.3453 10.475C28.4604 10.475 28.6475 10.4462 28.6763 10.4318C28.6906 10.4318 28.705 10.4318 28.7194 10.4318C28.7482 10.5326 28.705 10.734 28.6331 10.8779C28.259 10.8923 27.3957 10.8491 26.9496 10.7052C26.5899 10.5901 26.2014 10.734 25.8705 11.1225C25.6978 11.3239 25.4245 11.7124 25.5683 12.1009C25.5396 12.1729 25.4245 12.3311 25.3813 12.3887C25.1511 12.7052 24.8345 13.1513 24.9353 13.7412C25.036 14.3167 25.4964 14.7196 25.8417 14.9642C26.2878 15.2952 26.8777 15.3095 27.3525 15.3095C27.5971 15.3095 27.8417 15.3095 27.8993 15.3815C27.9424 15.4247 28.0863 15.6549 28.0719 16.5901C28.0719 16.8347 28.0719 17.0218 28.1007 17.2088C28.1295 17.5829 28.1583 17.8995 27.9856 18.5757C27.8705 19.0218 28.0432 19.4534 28.4317 19.6836C28.4892 19.7124 28.5468 19.7412 28.6043 19.77C27.1367 21.1657 25.223 21.9282 23.2086 21.9282L23.223 21.9426ZM29.7122 18.4894C29.5396 18.6333 29.3237 18.6765 29.1799 18.6765C29.3381 17.9283 29.3094 17.5254 29.2806 17.1225C29.2806 16.9642 29.2518 16.8059 29.2662 16.6333C29.2806 15.5973 29.1367 14.9642 28.7626 14.5757C28.3597 14.1585 27.8273 14.1441 27.3813 14.1297C27.1223 14.1297 26.8489 14.1297 26.5899 14.0434C26.1583 13.7412 26.1007 13.5685 26.1007 13.5398C26.0863 13.4534 26.2302 13.252 26.3453 13.0937C26.5468 12.8203 26.8345 12.4175 26.7482 11.9282C26.7482 11.9282 26.7626 11.9139 26.777 11.8995C27.4964 12.0865 28.705 12.1297 29.0791 12.029C29.6259 11.8707 29.9712 10.993 29.8993 10.3311C29.8273 9.69803 29.3813 9.28077 28.7338 9.25199C28.6331 9.25199 28.4892 9.25199 28.2158 9.29516C28.0432 9.30954 27.6835 9.35271 27.4388 9.3671C27.3957 9.05055 27.4245 8.76278 27.5108 8.67645C27.7554 8.46062 28.2302 8.28796 28.5755 8.17285C28.6475 8.14408 28.705 8.12969 28.7626 8.1153C28.8633 8.21602 28.9784 8.31674 29.0791 8.43185C30.4173 9.92825 31.1511 11.8275 31.1511 13.8707C31.1511 15.9139 30.6619 17.1369 29.7122 18.4894Z" fill="#34D399"/>
</g>
</g>
</g>
<defs>
<clipPath id="clip0_2581_934">
<rect width="40" height="40" fill="white"/>
</clipPath>
<clipPath id="clip1_2581_934">
<rect width="40" height="40" fill="white"/>
</clipPath>
</defs>
</svg>
