<svg width="40" height="40" viewBox="0 0 40 40" fill="none" xmlns="http://www.w3.org/2000/svg">
<g clip-path="url(#clip0_2581_880)">
<g clip-path="url(#clip1_2581_880)">
<mask id="mask0_2581_880" style="mask-type:luminance" maskUnits="userSpaceOnUse" x="0" y="0" width="40" height="40">
<path d="M39.4245 0H0V39.5683H39.4245V0Z" fill="white"/>
</mask>
<g mask="url(#mask0_2581_880)">
<path d="M19.7555 0.10083C8.90657 0.10083 0.0864258 8.92097 0.0864258 19.7699C0.0864258 30.6188 8.90657 39.439 19.7555 39.439C30.6044 39.439 39.4246 30.6188 39.4246 19.7699C39.4246 8.92097 30.6044 0.10083 19.7555 0.10083ZM19.7555 37.9857C9.71232 37.9857 1.52527 29.8131 1.52527 19.7555C1.52527 9.69795 9.69794 1.52529 19.7555 1.52529C29.813 1.52529 37.9857 9.69795 37.9857 19.7555C37.9857 29.8131 29.813 37.9857 19.7555 37.9857Z" fill="#FCD34D"/>
<path d="M33.5396 10.7914H31.9137V10.3885C31.9137 10.0432 31.6979 9.72663 31.367 9.62591C30.0864 9.29498 28.7627 9.12231 27.4389 9.12231C26.1152 9.12231 27.4101 9.12231 27.3958 9.12231C25.2806 9.12231 22.3166 9.58275 20.072 11.741C17.8706 9.58275 14.8922 9.12231 12.7483 9.12231C10.6044 9.12231 12.7195 9.12231 12.7051 9.12231C11.3814 9.12231 10.0576 9.29498 8.76266 9.62591C8.43173 9.72663 8.20151 10.0288 8.2159 10.3741V10.777H6.60439C6.18712 10.777 5.8418 11.1223 5.8418 11.5396V28.8777C5.8418 29.295 6.18712 29.6403 6.60439 29.6403C6.73388 29.6403 6.86338 29.6115 6.97849 29.5396C7.53964 29.2374 12.7051 26.6619 19.885 28.4748H20.0576C20.1152 28.4748 20.1727 28.4748 20.2303 28.4748H20.2591C27.5109 26.6331 32.7051 29.2806 33.1224 29.5108L33.1655 29.5396C33.2806 29.6115 33.4101 29.6403 33.5396 29.6403C33.6691 29.6403 33.7986 29.6115 33.9137 29.5396C34.144 29.4101 34.2878 29.1511 34.2878 28.8921V11.554C34.2878 11.1367 33.9425 10.7914 33.5252 10.7914H33.5396ZM27.6835 26.2015C28.8058 26.2015 29.9569 26.3022 31.0648 26.4604C31.2663 26.4892 31.4677 26.4461 31.626 26.3166C31.7842 26.2015 31.8993 26.0144 31.9281 25.813C31.9281 25.7698 31.9281 25.7266 31.9281 25.6979V12.3022H32.7914V27.6979C30.4605 26.7914 28.0145 26.3309 25.5396 26.3166C26.2447 26.2158 26.9497 26.1727 27.6691 26.1871L27.6835 26.2015ZM27.6835 24.6763C24.3166 24.6763 22.144 25.482 20.8346 26.2446V13.1943C22.7483 11.1079 25.4533 10.6619 27.3958 10.6619C28.4029 10.6619 29.4101 10.777 30.403 10.9784V24.8489C29.4965 24.7482 28.59 24.6907 27.6835 24.6763ZM12.4749 24.6907C11.5684 24.6907 10.6476 24.7482 9.74108 24.8489V10.9784C10.7339 10.777 11.7411 10.6619 12.7483 10.6619C14.7051 10.6619 17.4101 11.1079 19.3094 13.1943V26.2446C18.0432 25.4964 15.8706 24.6907 12.4893 24.6907H12.4749ZM8.99288 26.4748C9.03604 26.4748 9.07921 26.4748 9.12237 26.4748C10.2303 26.3022 11.367 26.2158 12.4893 26.2015C13.1943 26.2015 13.9137 26.2302 14.6044 26.3309C12.144 26.3453 9.68352 26.8202 7.38137 27.7122V12.3166H8.24467V25.7122C8.24467 26.1295 8.57561 26.4748 8.99288 26.4748Z" fill="#FCD34D"/>
<path d="M14.4174 13.3238C13.3526 13.18 12.2159 13.2375 11.0361 13.4821C10.849 13.5253 10.7051 13.7699 10.7339 14.0433C10.7627 14.3166 10.9497 14.5037 11.1368 14.4605C12.6907 14.1296 15.626 13.885 17.9138 15.8562C18.0864 16.0001 18.3022 15.9282 18.403 15.6979C18.5037 15.4677 18.4605 15.1656 18.2879 15.0073C17.2087 14.072 15.8994 13.4965 14.4174 13.3095V13.3238Z" fill="#FCD34D"/>
<path d="M14.4174 16.9066C13.3526 16.7627 12.2159 16.8203 11.0361 17.0649C10.849 17.108 10.7051 17.3527 10.7339 17.626C10.7627 17.8994 10.9497 18.0865 11.1368 18.0433C12.6907 17.7124 15.626 17.4678 17.9138 19.439C18.0864 19.5829 18.3022 19.5109 18.403 19.2807C18.5037 19.0505 18.4605 18.7483 18.2879 18.5901C17.2087 17.6548 15.8994 17.0793 14.4174 16.8922V16.9066Z" fill="#FCD34D"/>
<path d="M14.4174 20.5038C13.3526 20.3599 12.2159 20.4174 11.0361 20.662C10.849 20.7052 10.7051 20.9498 10.7339 21.2232C10.7627 21.4966 10.9497 21.6836 11.1368 21.6405C12.6907 21.3095 15.626 21.0649 17.9138 23.0361C18.0864 23.18 18.3022 23.1081 18.403 22.8779C18.5037 22.6477 18.4605 22.3455 18.2879 22.1872C17.2087 21.252 15.8994 20.6764 14.4174 20.4894V20.5038Z" fill="#FCD34D"/>
<path d="M29.1799 13.4821C28.0001 13.2375 26.8634 13.18 25.7986 13.3238C24.3166 13.5109 23.0073 14.0864 21.9281 15.0217C21.7555 15.1656 21.7123 15.4677 21.813 15.7123C21.9138 15.9425 22.1296 16.0145 22.3022 15.8706C24.59 13.885 27.5253 14.144 29.0792 14.4749C29.2663 14.5181 29.4533 14.331 29.4821 14.0577C29.5109 13.7843 29.3814 13.5397 29.1799 13.4965V13.4821Z" fill="#FCD34D"/>
<path d="M29.1799 17.0793C28.0001 16.8347 26.8634 16.7771 25.7986 16.921C24.3166 17.1081 23.0073 17.6836 21.9281 18.6189C21.7555 18.7627 21.7123 19.0649 21.813 19.3095C21.9138 19.5397 22.1296 19.6117 22.3022 19.4678C24.59 17.4822 27.5253 17.7412 29.0792 18.0721C29.2663 18.1153 29.4533 17.9282 29.4821 17.6548C29.5109 17.3814 29.3814 17.1368 29.1799 17.0937V17.0793Z" fill="#FCD34D"/>
<path d="M29.1799 20.662C28.0001 20.4174 26.8634 20.3599 25.7986 20.5038C24.3166 20.6908 23.0073 21.2664 21.9281 22.2016C21.7555 22.3455 21.7123 22.6477 21.813 22.8923C21.9138 23.1225 22.1296 23.1944 22.3022 23.0505C24.59 21.0649 27.5253 21.3239 29.0792 21.6549C29.2663 21.698 29.4533 21.511 29.4821 21.2376C29.5109 20.9642 29.3814 20.7196 29.1799 20.6764V20.662Z" fill="#FCD34D"/>
</g>
</g>
</g>
<defs>
<clipPath id="clip0_2581_880">
<rect width="40" height="40" fill="white"/>
</clipPath>
<clipPath id="clip1_2581_880">
<rect width="40" height="40" fill="white"/>
</clipPath>
</defs>
</svg>
