<svg width="40" height="40" viewBox="0 0 40 40" fill="none" xmlns="http://www.w3.org/2000/svg">
<g clip-path="url(#clip0_2581_1108)">
<g clip-path="url(#clip1_2581_1108)">
<mask id="mask0_2581_1108" style="mask-type:luminance" maskUnits="userSpaceOnUse" x="0" y="0" width="40" height="40">
<path d="M39.5683 0H0V39.4245H39.5683V0Z" fill="white"/>
</mask>
<g mask="url(#mask0_2581_1108)">
<path d="M19.7985 0C8.94954 0 0.129395 8.82014 0.129395 19.6691C0.129395 30.518 8.94954 39.3381 19.7985 39.3381C30.6474 39.3381 39.4675 30.518 39.4675 19.6691C39.4675 8.82014 30.6474 0 19.7985 0ZM19.7985 37.8849C9.75529 37.8849 1.56824 29.7122 1.56824 19.6547C1.56824 9.59712 9.7409 1.42446 19.7985 1.42446C29.856 1.42446 38.0287 9.59712 38.0287 19.6547C38.0287 29.7122 29.856 37.8849 19.7985 37.8849Z" fill="#60A5FA"/>
<path d="M20.9352 18.8344C20.6475 19.0071 20.2302 19.1078 19.7842 19.0934C19.2086 19.079 18.6762 18.892 18.0288 18.6761C17.9137 18.633 17.7985 18.6042 17.6834 18.561C17.2806 18.4315 16.8345 18.6474 16.705 19.0502C16.5755 19.4531 16.7913 19.8992 17.1942 20.0287C17.2949 20.0574 17.3957 20.1006 17.4964 20.1294C17.9424 20.2877 18.446 20.4603 18.9928 20.561V21.4243C18.9928 21.856 19.3381 22.2013 19.7698 22.2013C20.2014 22.2013 20.5467 21.856 20.5467 21.4243V20.5898C20.964 20.5179 21.3957 20.374 21.7698 20.1438C22.4172 19.7409 22.8921 19.0646 22.8777 18.1294C22.8777 17.2373 22.3597 16.6474 21.7698 16.2733C21.2374 15.9423 20.5611 15.7265 20.0144 15.5682H19.9856C19.3813 15.3812 18.9065 15.2373 18.5755 15.0359C18.2878 14.8632 18.2302 14.7193 18.2158 14.5466C18.2158 14.2877 18.3309 14.0862 18.6043 13.9279C18.9065 13.7553 19.3381 13.6546 19.7554 13.6546C20.2446 13.6546 20.777 13.7697 21.3093 13.9136C21.7266 14.0287 22.1439 13.7841 22.259 13.3668C22.3741 12.9495 22.1295 12.5323 21.7122 12.4172C21.3525 12.3164 20.9496 12.2301 20.5467 12.1725V11.338C20.5467 10.9064 20.2014 10.561 19.7698 10.561C19.3381 10.561 18.9928 10.9064 18.9928 11.338V12.1725C18.5899 12.2445 18.187 12.3884 17.8273 12.5898C17.1942 12.9639 16.6619 13.6114 16.6762 14.561C16.6762 15.4531 17.1942 16.0287 17.7842 16.374C18.2878 16.6761 18.9352 16.8776 19.4676 17.0359L19.5396 17.0646C20.1439 17.2517 20.6187 17.3956 20.9496 17.6114C21.2374 17.7841 21.3237 17.9567 21.3237 18.1725C21.3237 18.4891 21.1942 18.6905 20.9496 18.8488L20.9352 18.8344Z" fill="#60A5FA"/>
<path d="M19.7553 26.4603C22.4315 26.4603 25.0071 25.3955 26.892 23.5106C28.7912 21.6113 29.8416 19.0502 29.8416 16.3739C29.8416 13.6977 28.7769 11.1221 26.892 9.23724C24.9927 7.33796 22.4315 6.2876 19.7553 6.2876C17.079 6.2876 14.5035 7.35235 12.6186 9.23724C10.7337 11.1221 9.66895 13.6977 9.66895 16.3739C9.66895 19.0502 10.7337 21.6257 12.6186 23.5106C14.5035 25.3955 17.079 26.4603 19.7553 26.4603ZM11.2229 16.3595C11.2229 15.2372 11.4387 14.1293 11.8704 13.0934C12.302 12.0574 12.9351 11.1221 13.7265 10.3164C14.5179 9.52501 15.4675 8.89191 16.5035 8.46026C17.5394 8.0286 18.6474 7.81278 19.7697 7.81278C20.892 7.81278 21.9999 8.0286 23.0359 8.46026C24.0718 8.89191 25.0071 9.52501 25.8128 10.3164C26.6042 11.1077 27.2373 12.0574 27.6689 13.0934C28.1006 14.1293 28.3164 15.2372 28.3164 16.3595C28.3164 17.4818 28.1006 18.5898 27.6689 19.6257C27.2373 20.6617 26.6042 21.597 25.8128 22.4027C25.0215 23.1941 24.0718 23.8272 23.0359 24.2588C21.9999 24.6905 20.892 24.9063 19.7697 24.9063C18.6474 24.9063 17.5394 24.6905 16.5035 24.2588C15.4675 23.8272 14.5323 23.1941 13.7265 22.4027C12.9351 21.6113 12.302 20.6617 11.8704 19.6257C11.4387 18.5898 11.2229 17.4818 11.2229 16.3595Z" fill="#60A5FA"/>
<path d="M29.4676 23.3525H29.0791C28.6619 23.9137 28.1871 24.4317 27.6835 24.9065H29.4676C30.1151 24.9065 30.6331 25.4245 30.6331 26.072V28.4029C30.6331 29.0504 30.1151 29.5684 29.4676 29.5684H10.0576C9.41008 29.5684 8.89209 29.0504 8.89209 28.4029V26.072C8.89209 25.4245 9.41008 24.9065 10.0576 24.9065H11.8417C11.3381 24.4317 10.8633 23.9137 10.446 23.3525H10.0576C8.56116 23.3525 7.33813 24.5756 7.33813 26.072V28.4029C7.33813 29.8993 8.56116 31.1223 10.0576 31.1223H29.4676C30.964 31.1223 32.1871 29.8993 32.1871 28.4029V26.072C32.1871 24.5756 30.964 23.3525 29.4676 23.3525Z" fill="#60A5FA"/>
</g>
</g>
</g>
<defs>
<clipPath id="clip0_2581_1108">
<rect width="40" height="40" fill="white"/>
</clipPath>
<clipPath id="clip1_2581_1108">
<rect width="40" height="40" fill="white"/>
</clipPath>
</defs>
</svg>
