<svg width="40" height="40" viewBox="0 0 40 40" fill="none" xmlns="http://www.w3.org/2000/svg">
<g clip-path="url(#clip0_2581_863)">
<g clip-path="url(#clip1_2581_863)">
<mask id="mask0_2581_863" style="mask-type:luminance" maskUnits="userSpaceOnUse" x="0" y="0" width="40" height="40">
<path d="M39.4245 0H0V39.5683H39.4245V0Z" fill="white"/>
</mask>
<g mask="url(#mask0_2581_863)">
<path d="M19.7555 0.10083C8.90657 0.10083 0.0864258 8.92097 0.0864258 19.7699C0.0864258 30.6188 8.90657 39.439 19.7555 39.439C30.6044 39.439 39.4246 30.6188 39.4246 19.7699C39.4246 8.92097 30.6044 0.10083 19.7555 0.10083ZM19.7555 37.9857C9.71233 37.9857 1.52527 29.8131 1.52527 19.7555C1.52527 9.69795 9.69794 1.52529 19.7555 1.52529C29.813 1.52529 37.9857 9.69795 37.9857 19.7555C37.9857 29.8131 29.813 37.9857 19.7555 37.9857Z" fill="#FCD34D"/>
<path d="M34.3743 17.957L20.2736 5.51094C19.957 5.23756 19.4822 5.23756 19.18 5.51094L5.07932 17.957C4.73399 18.2591 4.70522 18.7915 5.00737 19.1225C5.30953 19.4678 5.84191 19.4966 6.17284 19.1944L8.11529 17.4822V27.698C8.11529 29.9858 9.9714 31.8419 12.2592 31.8419H27.1944C29.4822 31.8419 31.3383 29.9858 31.3383 27.698V17.4822L33.2808 19.1944C33.6261 19.4966 34.1441 19.4678 34.4462 19.1225C34.7484 18.7771 34.7196 18.2448 34.3743 17.957ZM29.6692 27.7124C29.6692 29.0937 28.5613 30.2016 27.18 30.2016H12.2448C10.8635 30.2016 9.75558 29.0937 9.75558 27.7124V16.0289L19.7124 7.23756L29.6692 16.0289V27.7124Z" fill="#FCD34D"/>
<path d="M18.7627 17.5684C18.7771 17.4389 18.7915 17.3094 18.7915 17.1943C18.7915 15.5972 17.4822 14.2878 15.885 14.2878C14.2879 14.2878 12.9786 15.5972 12.9786 17.1943C12.9786 18.7914 13.1944 18.4893 13.6117 18.9929C12.6045 19.3526 11.9138 20.3166 11.9138 21.4101V24.0145C11.9138 24.6476 12.4318 25.1655 13.0649 25.1655H15.7987V27.1655C15.7987 27.7842 16.3023 28.2878 16.921 28.2878H17.0649V24.5181C17.0649 23.813 17.6692 23.2375 18.3742 23.2375H21.2088C21.9138 23.2375 22.5037 23.813 22.5181 24.5181C22.5181 24.5756 22.5181 24.9209 22.5181 27.0504V28.3022H22.6476C23.2663 28.3022 23.7699 27.7986 23.7699 27.1799V25.1799H26.5037C27.1368 25.1799 27.6548 24.6619 27.6548 24.0288V21.4245C27.6548 20.331 26.9642 19.367 25.957 19.0073C26.3599 18.4893 26.5901 17.8562 26.5901 17.2087C26.5901 15.6116 25.2807 14.3022 23.6836 14.3022C22.0865 14.3022 20.7771 15.6116 20.7771 17.2087C20.7771 18.8058 20.7771 17.4677 20.8059 17.5828C20.1728 17.3526 19.4534 17.3526 18.8059 17.5828L18.7627 17.5684ZM15.8563 23.8994H13.1512V21.3958C13.1512 20.6763 13.7412 20.0864 14.4606 20.0864H16.8635C16.8635 20.1583 16.8635 20.2159 16.8635 20.2878C16.8635 20.9497 17.0793 21.5828 17.4966 22.0864C16.6908 22.3742 16.0721 23.0648 15.8707 23.8994H15.8563ZM15.885 18.8346C14.9642 18.8346 14.2304 18.0864 14.2304 17.1799C14.2304 16.2735 14.9786 15.5253 15.885 15.5253C16.7915 15.5253 17.5397 16.2735 17.5397 17.1799C17.5397 18.0864 16.7915 18.8346 15.885 18.8346ZM26.3743 21.3958V23.8994H23.6692C23.4678 23.0648 22.8491 22.3742 22.0433 22.0864C22.4462 21.5684 22.6764 20.9353 22.6764 20.2878C22.6764 19.6404 22.6764 20.1583 22.6764 20.0864H25.0793C25.7987 20.0864 26.3886 20.6763 26.3886 21.3958H26.3743ZM23.6404 15.5253C24.5613 15.5253 25.2951 16.2735 25.2951 17.1799C25.2951 18.0864 24.5469 18.8346 23.6404 18.8346C22.734 18.8346 21.9858 18.0864 21.9858 17.1799C21.9858 16.2735 22.734 15.5253 23.6404 15.5253ZM21.4246 20.2878C21.4246 21.2087 20.6764 21.9425 19.7699 21.9425C18.8635 21.9425 18.1153 21.1943 18.1153 20.2878C18.1153 19.3814 18.8635 18.6332 19.7699 18.6332C20.6764 18.6332 21.4246 19.3814 21.4246 20.2878Z" fill="#FCD34D"/>
</g>
</g>
</g>
<defs>
<clipPath id="clip0_2581_863">
<rect width="40" height="40" fill="white"/>
</clipPath>
<clipPath id="clip1_2581_863">
<rect width="40" height="40" fill="white"/>
</clipPath>
</defs>
</svg>
